<svg xmlns="http://www.w3.org/2000/svg" version="1.1" xmlns:xlink="http://www.w3.org/1999/xlink" xmlns:svgjs="http://svgjs.com/svgjs" width="2000" height="800" preserveAspectRatio="none" viewBox="0 0 2000 800"><g mask="url(&quot;#SvgjsMask1109&quot;)" fill="none"><rect width="2000" height="800" x="0" y="0" fill="rgba(8, 40, 56, 1)"></rect><g transform="translate(200, 0)" stroke-linecap="round"><path d="M370 321.24 L370 478.76" stroke-width="26.25" stroke="rgba(14, 185, 146, 1)"></path><path d="M405 236.63 L405 563.37" stroke-width="26.25" stroke="rgba(58, 124, 195, 1)"></path><path d="M440 171.56 L440 628.44" stroke-width="26.25" stroke="rgba(58, 124, 195, 1)"></path><path d="M475 358.36 L475 441.64" stroke-width="26.25" stroke="rgba(14, 185, 146, 1)"></path><path d="M510 310.9 L510 489.1" stroke-width="26.25" stroke="rgba(14, 185, 146, 1)"></path><path d="M545 192.32 L545 607.67" stroke-width="26.25" stroke="rgba(14, 185, 146, 1)"></path><path d="M580 266.37 L580 533.63" stroke-width="26.25" stroke="rgba(58, 124, 195, 1)"></path><path d="M615 316.35 L615 483.65" stroke-width="26.25" stroke="rgba(58, 124, 195, 1)"></path><path d="M650 312.64 L650 487.36" stroke-width="26.25" stroke="rgba(58, 124, 195, 1)"></path><path d="M685 178.14 L685 621.86" stroke-width="26.25" stroke="rgba(58, 124, 195, 1)"></path><path d="M720 355.5 L720 444.5" stroke-width="26.25" stroke="rgba(58, 124, 195, 1)"></path><path d="M755 179.21 L755 620.79" stroke-width="26.25" stroke="rgba(14, 185, 146, 1)"></path><path d="M790 348.25 L790 451.75" stroke-width="26.25" stroke="rgba(14, 185, 146, 1)"></path><path d="M825 335.97 L825 464.03" stroke-width="26.25" stroke="rgba(58, 124, 195, 1)"></path><path d="M860 268.24 L860 531.76" stroke-width="26.25" stroke="rgba(58, 124, 195, 1)"></path><path d="M895 313 L895 487" stroke-width="26.25" stroke="rgba(58, 124, 195, 1)"></path><path d="M930 257.42 L930 542.58" stroke-width="26.25" stroke="rgba(58, 124, 195, 1)"></path><path d="M965 227.75 L965 572.25" stroke-width="26.25" stroke="rgba(14, 185, 146, 1)"></path><path d="M1000 364.15 L1000 435.85" stroke-width="26.25" stroke="rgba(14, 185, 146, 1)"></path><path d="M1035 174.72 L1035 625.28" stroke-width="26.25" stroke="rgba(14, 185, 146, 1)"></path><path d="M1070 275.9 L1070 524.1" stroke-width="26.25" stroke="rgba(14, 185, 146, 1)"></path><path d="M1105 280.58 L1105 519.41" stroke-width="26.25" stroke="rgba(14, 185, 146, 1)"></path><path d="M1140 325.45 L1140 474.55" stroke-width="26.25" stroke="rgba(14, 185, 146, 1)"></path><path d="M1175 329.28 L1175 470.72" stroke-width="26.25" stroke="rgba(58, 124, 195, 1)"></path><path d="M1210 318.15 L1210 481.85" stroke-width="26.25" stroke="rgba(14, 185, 146, 1)"></path><path d="M1245 229 L1245 571" stroke-width="26.25" stroke="rgba(58, 124, 195, 1)"></path><path d="M1280 355.11 L1280 444.89" stroke-width="26.25" stroke="rgba(14, 185, 146, 1)"></path><path d="M1315 183.25 L1315 616.75" stroke-width="26.25" stroke="rgba(14, 185, 146, 1)"></path><path d="M1350 227.72 L1350 572.28" stroke-width="26.25" stroke="rgba(58, 124, 195, 1)"></path><path d="M1385 178.21 L1385 621.79" stroke-width="26.25" stroke="rgba(14, 185, 146, 1)"></path><path d="M1420 357.15 L1420 442.85" stroke-width="26.25" stroke="rgba(14, 185, 146, 1)"></path><path d="M1455 368.95 L1455 431.05" stroke-width="26.25" stroke="rgba(58, 124, 195, 1)"></path><path d="M1490 190.79 L1490 609.21" stroke-width="26.25" stroke="rgba(14, 185, 146, 1)"></path><path d="M1525 249.17 L1525 550.83" stroke-width="26.25" stroke="rgba(58, 124, 195, 1)"></path><path d="M1560 219.47 L1560 580.53" stroke-width="26.25" stroke="rgba(14, 185, 146, 1)"></path><path d="M1595 164.65 L1595 635.35" stroke-width="26.25" stroke="rgba(14, 185, 146, 1)"></path><path d="M1630 182.81 L1630 617.19" stroke-width="26.25" stroke="rgba(14, 185, 146, 1)"></path></g></g><defs><mask id="SvgjsMask1109"><rect width="2000" height="800" fill="#ffffff"></rect></mask></defs></svg>