<svg xmlns="http://www.w3.org/2000/svg" version="1.1" xmlns:xlink="http://www.w3.org/1999/xlink" xmlns:svgjs="http://svgjs.com/svgjs" width="2000" height="600" preserveAspectRatio="none" viewBox="0 0 2000 600"><g mask="url(&quot;#SvgjsMask1040&quot;)" fill="none"><rect width="2000" height="600" x="0" y="0" fill="rgba(6, 30, 53, 1)"></rect><g transform="translate(240, 0)"><path d="M408.5 300 a14 14 0 1 0 28 0 a14 14 0 1 0 -28 0zM408.5 265 a14 14 0 1 0 28 0 a14 14 0 1 0 -28 0zM408.5 335 a14 14 0 1 0 28 0 a14 14 0 1 0 -28 0zM408.5 230 a14 14 0 1 0 28 0 a14 14 0 1 0 -28 0zM408.5 370 a14 14 0 1 0 28 0 a14 14 0 1 0 -28 0zM408.5 195 a14 14 0 1 0 28 0 a14 14 0 1 0 -28 0zM408.5 405 a14 14 0 1 0 28 0 a14 14 0 1 0 -28 0zM408.5 160 a14 14 0 1 0 28 0 a14 14 0 1 0 -28 0zM408.5 440 a14 14 0 1 0 28 0 a14 14 0 1 0 -28 0z" fill="url(#SvgjsLinearGradient1041)"></path><path d="M443.5 300 a14 14 0 1 0 28 0 a14 14 0 1 0 -28 0zM443.5 265 a14 14 0 1 0 28 0 a14 14 0 1 0 -28 0zM443.5 335 a14 14 0 1 0 28 0 a14 14 0 1 0 -28 0zM443.5 230 a14 14 0 1 0 28 0 a14 14 0 1 0 -28 0zM443.5 370 a14 14 0 1 0 28 0 a14 14 0 1 0 -28 0z" fill="url(#SvgjsLinearGradient1041)"></path><path d="M478.5 300 a14 14 0 1 0 28 0 a14 14 0 1 0 -28 0zM478.5 265 a14 14 0 1 0 28 0 a14 14 0 1 0 -28 0zM478.5 335 a14 14 0 1 0 28 0 a14 14 0 1 0 -28 0zM478.5 230 a14 14 0 1 0 28 0 a14 14 0 1 0 -28 0zM478.5 370 a14 14 0 1 0 28 0 a14 14 0 1 0 -28 0zM478.5 195 a14 14 0 1 0 28 0 a14 14 0 1 0 -28 0zM478.5 405 a14 14 0 1 0 28 0 a14 14 0 1 0 -28 0zM478.5 160 a14 14 0 1 0 28 0 a14 14 0 1 0 -28 0zM478.5 440 a14 14 0 1 0 28 0 a14 14 0 1 0 -28 0zM478.5 125 a14 14 0 1 0 28 0 a14 14 0 1 0 -28 0zM478.5 475 a14 14 0 1 0 28 0 a14 14 0 1 0 -28 0z" fill="url(#SvgjsLinearGradient1041)"></path><path d="M513.5 300 a14 14 0 1 0 28 0 a14 14 0 1 0 -28 0zM513.5 265 a14 14 0 1 0 28 0 a14 14 0 1 0 -28 0zM513.5 335 a14 14 0 1 0 28 0 a14 14 0 1 0 -28 0zM513.5 230 a14 14 0 1 0 28 0 a14 14 0 1 0 -28 0zM513.5 370 a14 14 0 1 0 28 0 a14 14 0 1 0 -28 0zM513.5 195 a14 14 0 1 0 28 0 a14 14 0 1 0 -28 0zM513.5 405 a14 14 0 1 0 28 0 a14 14 0 1 0 -28 0z" fill="url(#SvgjsLinearGradient1041)"></path><path d="M548.5 300 a14 14 0 1 0 28 0 a14 14 0 1 0 -28 0zM548.5 265 a14 14 0 1 0 28 0 a14 14 0 1 0 -28 0zM548.5 335 a14 14 0 1 0 28 0 a14 14 0 1 0 -28 0zM548.5 230 a14 14 0 1 0 28 0 a14 14 0 1 0 -28 0zM548.5 370 a14 14 0 1 0 28 0 a14 14 0 1 0 -28 0zM548.5 195 a14 14 0 1 0 28 0 a14 14 0 1 0 -28 0zM548.5 405 a14 14 0 1 0 28 0 a14 14 0 1 0 -28 0zM548.5 160 a14 14 0 1 0 28 0 a14 14 0 1 0 -28 0zM548.5 440 a14 14 0 1 0 28 0 a14 14 0 1 0 -28 0zM548.5 125 a14 14 0 1 0 28 0 a14 14 0 1 0 -28 0zM548.5 475 a14 14 0 1 0 28 0 a14 14 0 1 0 -28 0z" fill="url(#SvgjsLinearGradient1041)"></path><path d="M583.5 300 a14 14 0 1 0 28 0 a14 14 0 1 0 -28 0zM583.5 265 a14 14 0 1 0 28 0 a14 14 0 1 0 -28 0zM583.5 335 a14 14 0 1 0 28 0 a14 14 0 1 0 -28 0zM583.5 230 a14 14 0 1 0 28 0 a14 14 0 1 0 -28 0zM583.5 370 a14 14 0 1 0 28 0 a14 14 0 1 0 -28 0zM583.5 195 a14 14 0 1 0 28 0 a14 14 0 1 0 -28 0zM583.5 405 a14 14 0 1 0 28 0 a14 14 0 1 0 -28 0zM583.5 160 a14 14 0 1 0 28 0 a14 14 0 1 0 -28 0zM583.5 440 a14 14 0 1 0 28 0 a14 14 0 1 0 -28 0z" fill="url(#SvgjsLinearGradient1041)"></path><path d="M618.5 300 a14 14 0 1 0 28 0 a14 14 0 1 0 -28 0zM618.5 265 a14 14 0 1 0 28 0 a14 14 0 1 0 -28 0zM618.5 335 a14 14 0 1 0 28 0 a14 14 0 1 0 -28 0zM618.5 230 a14 14 0 1 0 28 0 a14 14 0 1 0 -28 0zM618.5 370 a14 14 0 1 0 28 0 a14 14 0 1 0 -28 0z" fill="url(#SvgjsLinearGradient1041)"></path><path d="M653.5 300 a14 14 0 1 0 28 0 a14 14 0 1 0 -28 0zM653.5 265 a14 14 0 1 0 28 0 a14 14 0 1 0 -28 0zM653.5 335 a14 14 0 1 0 28 0 a14 14 0 1 0 -28 0zM653.5 230 a14 14 0 1 0 28 0 a14 14 0 1 0 -28 0zM653.5 370 a14 14 0 1 0 28 0 a14 14 0 1 0 -28 0zM653.5 195 a14 14 0 1 0 28 0 a14 14 0 1 0 -28 0zM653.5 405 a14 14 0 1 0 28 0 a14 14 0 1 0 -28 0z" fill="url(#SvgjsLinearGradient1041)"></path><path d="M688.5 300 a14 14 0 1 0 28 0 a14 14 0 1 0 -28 0zM688.5 265 a14 14 0 1 0 28 0 a14 14 0 1 0 -28 0zM688.5 335 a14 14 0 1 0 28 0 a14 14 0 1 0 -28 0z" fill="url(#SvgjsLinearGradient1041)"></path><path d="M723.5 300 a14 14 0 1 0 28 0 a14 14 0 1 0 -28 0zM723.5 265 a14 14 0 1 0 28 0 a14 14 0 1 0 -28 0zM723.5 335 a14 14 0 1 0 28 0 a14 14 0 1 0 -28 0zM723.5 230 a14 14 0 1 0 28 0 a14 14 0 1 0 -28 0zM723.5 370 a14 14 0 1 0 28 0 a14 14 0 1 0 -28 0zM723.5 195 a14 14 0 1 0 28 0 a14 14 0 1 0 -28 0zM723.5 405 a14 14 0 1 0 28 0 a14 14 0 1 0 -28 0zM723.5 160 a14 14 0 1 0 28 0 a14 14 0 1 0 -28 0zM723.5 440 a14 14 0 1 0 28 0 a14 14 0 1 0 -28 0z" fill="url(#SvgjsLinearGradient1041)"></path><path d="M758.5 300 a14 14 0 1 0 28 0 a14 14 0 1 0 -28 0zM758.5 265 a14 14 0 1 0 28 0 a14 14 0 1 0 -28 0zM758.5 335 a14 14 0 1 0 28 0 a14 14 0 1 0 -28 0zM758.5 230 a14 14 0 1 0 28 0 a14 14 0 1 0 -28 0zM758.5 370 a14 14 0 1 0 28 0 a14 14 0 1 0 -28 0zM758.5 195 a14 14 0 1 0 28 0 a14 14 0 1 0 -28 0zM758.5 405 a14 14 0 1 0 28 0 a14 14 0 1 0 -28 0zM758.5 160 a14 14 0 1 0 28 0 a14 14 0 1 0 -28 0zM758.5 440 a14 14 0 1 0 28 0 a14 14 0 1 0 -28 0z" fill="url(#SvgjsLinearGradient1041)"></path><path d="M793.5 300 a14 14 0 1 0 28 0 a14 14 0 1 0 -28 0zM793.5 265 a14 14 0 1 0 28 0 a14 14 0 1 0 -28 0zM793.5 335 a14 14 0 1 0 28 0 a14 14 0 1 0 -28 0zM793.5 230 a14 14 0 1 0 28 0 a14 14 0 1 0 -28 0zM793.5 370 a14 14 0 1 0 28 0 a14 14 0 1 0 -28 0zM793.5 195 a14 14 0 1 0 28 0 a14 14 0 1 0 -28 0zM793.5 405 a14 14 0 1 0 28 0 a14 14 0 1 0 -28 0zM793.5 160 a14 14 0 1 0 28 0 a14 14 0 1 0 -28 0zM793.5 440 a14 14 0 1 0 28 0 a14 14 0 1 0 -28 0z" fill="url(#SvgjsLinearGradient1041)"></path><path d="M828.5 300 a14 14 0 1 0 28 0 a14 14 0 1 0 -28 0zM828.5 265 a14 14 0 1 0 28 0 a14 14 0 1 0 -28 0zM828.5 335 a14 14 0 1 0 28 0 a14 14 0 1 0 -28 0zM828.5 230 a14 14 0 1 0 28 0 a14 14 0 1 0 -28 0zM828.5 370 a14 14 0 1 0 28 0 a14 14 0 1 0 -28 0z" fill="url(#SvgjsLinearGradient1041)"></path><path d="M863.5 300 a14 14 0 1 0 28 0 a14 14 0 1 0 -28 0zM863.5 265 a14 14 0 1 0 28 0 a14 14 0 1 0 -28 0zM863.5 335 a14 14 0 1 0 28 0 a14 14 0 1 0 -28 0zM863.5 230 a14 14 0 1 0 28 0 a14 14 0 1 0 -28 0zM863.5 370 a14 14 0 1 0 28 0 a14 14 0 1 0 -28 0z" fill="url(#SvgjsLinearGradient1041)"></path><path d="M898.5 300 a14 14 0 1 0 28 0 a14 14 0 1 0 -28 0zM898.5 265 a14 14 0 1 0 28 0 a14 14 0 1 0 -28 0zM898.5 335 a14 14 0 1 0 28 0 a14 14 0 1 0 -28 0zM898.5 230 a14 14 0 1 0 28 0 a14 14 0 1 0 -28 0zM898.5 370 a14 14 0 1 0 28 0 a14 14 0 1 0 -28 0zM898.5 195 a14 14 0 1 0 28 0 a14 14 0 1 0 -28 0zM898.5 405 a14 14 0 1 0 28 0 a14 14 0 1 0 -28 0z" fill="url(#SvgjsLinearGradient1041)"></path><path d="M933.5 300 a14 14 0 1 0 28 0 a14 14 0 1 0 -28 0zM933.5 265 a14 14 0 1 0 28 0 a14 14 0 1 0 -28 0zM933.5 335 a14 14 0 1 0 28 0 a14 14 0 1 0 -28 0zM933.5 230 a14 14 0 1 0 28 0 a14 14 0 1 0 -28 0zM933.5 370 a14 14 0 1 0 28 0 a14 14 0 1 0 -28 0zM933.5 195 a14 14 0 1 0 28 0 a14 14 0 1 0 -28 0zM933.5 405 a14 14 0 1 0 28 0 a14 14 0 1 0 -28 0zM933.5 160 a14 14 0 1 0 28 0 a14 14 0 1 0 -28 0zM933.5 440 a14 14 0 1 0 28 0 a14 14 0 1 0 -28 0zM933.5 125 a14 14 0 1 0 28 0 a14 14 0 1 0 -28 0zM933.5 475 a14 14 0 1 0 28 0 a14 14 0 1 0 -28 0z" fill="url(#SvgjsLinearGradient1041)"></path><path d="M968.5 300 a14 14 0 1 0 28 0 a14 14 0 1 0 -28 0zM968.5 265 a14 14 0 1 0 28 0 a14 14 0 1 0 -28 0zM968.5 335 a14 14 0 1 0 28 0 a14 14 0 1 0 -28 0z" fill="url(#SvgjsLinearGradient1041)"></path><path d="M1003.5 300 a14 14 0 1 0 28 0 a14 14 0 1 0 -28 0zM1003.5 265 a14 14 0 1 0 28 0 a14 14 0 1 0 -28 0zM1003.5 335 a14 14 0 1 0 28 0 a14 14 0 1 0 -28 0zM1003.5 230 a14 14 0 1 0 28 0 a14 14 0 1 0 -28 0zM1003.5 370 a14 14 0 1 0 28 0 a14 14 0 1 0 -28 0zM1003.5 195 a14 14 0 1 0 28 0 a14 14 0 1 0 -28 0zM1003.5 405 a14 14 0 1 0 28 0 a14 14 0 1 0 -28 0zM1003.5 160 a14 14 0 1 0 28 0 a14 14 0 1 0 -28 0zM1003.5 440 a14 14 0 1 0 28 0 a14 14 0 1 0 -28 0z" fill="url(#SvgjsLinearGradient1041)"></path><path d="M1038.5 300 a14 14 0 1 0 28 0 a14 14 0 1 0 -28 0zM1038.5 265 a14 14 0 1 0 28 0 a14 14 0 1 0 -28 0zM1038.5 335 a14 14 0 1 0 28 0 a14 14 0 1 0 -28 0zM1038.5 230 a14 14 0 1 0 28 0 a14 14 0 1 0 -28 0zM1038.5 370 a14 14 0 1 0 28 0 a14 14 0 1 0 -28 0zM1038.5 195 a14 14 0 1 0 28 0 a14 14 0 1 0 -28 0zM1038.5 405 a14 14 0 1 0 28 0 a14 14 0 1 0 -28 0zM1038.5 160 a14 14 0 1 0 28 0 a14 14 0 1 0 -28 0zM1038.5 440 a14 14 0 1 0 28 0 a14 14 0 1 0 -28 0z" fill="url(#SvgjsLinearGradient1041)"></path><path d="M1073.5 300 a14 14 0 1 0 28 0 a14 14 0 1 0 -28 0zM1073.5 265 a14 14 0 1 0 28 0 a14 14 0 1 0 -28 0zM1073.5 335 a14 14 0 1 0 28 0 a14 14 0 1 0 -28 0zM1073.5 230 a14 14 0 1 0 28 0 a14 14 0 1 0 -28 0zM1073.5 370 a14 14 0 1 0 28 0 a14 14 0 1 0 -28 0z" fill="url(#SvgjsLinearGradient1041)"></path><path d="M1108.5 300 a14 14 0 1 0 28 0 a14 14 0 1 0 -28 0zM1108.5 265 a14 14 0 1 0 28 0 a14 14 0 1 0 -28 0zM1108.5 335 a14 14 0 1 0 28 0 a14 14 0 1 0 -28 0zM1108.5 230 a14 14 0 1 0 28 0 a14 14 0 1 0 -28 0zM1108.5 370 a14 14 0 1 0 28 0 a14 14 0 1 0 -28 0zM1108.5 195 a14 14 0 1 0 28 0 a14 14 0 1 0 -28 0zM1108.5 405 a14 14 0 1 0 28 0 a14 14 0 1 0 -28 0zM1108.5 160 a14 14 0 1 0 28 0 a14 14 0 1 0 -28 0zM1108.5 440 a14 14 0 1 0 28 0 a14 14 0 1 0 -28 0z" fill="url(#SvgjsLinearGradient1041)"></path><path d="M1143.5 300 a14 14 0 1 0 28 0 a14 14 0 1 0 -28 0zM1143.5 265 a14 14 0 1 0 28 0 a14 14 0 1 0 -28 0zM1143.5 335 a14 14 0 1 0 28 0 a14 14 0 1 0 -28 0z" fill="url(#SvgjsLinearGradient1041)"></path><path d="M1178.5 300 a14 14 0 1 0 28 0 a14 14 0 1 0 -28 0zM1178.5 265 a14 14 0 1 0 28 0 a14 14 0 1 0 -28 0zM1178.5 335 a14 14 0 1 0 28 0 a14 14 0 1 0 -28 0zM1178.5 230 a14 14 0 1 0 28 0 a14 14 0 1 0 -28 0zM1178.5 370 a14 14 0 1 0 28 0 a14 14 0 1 0 -28 0zM1178.5 195 a14 14 0 1 0 28 0 a14 14 0 1 0 -28 0zM1178.5 405 a14 14 0 1 0 28 0 a14 14 0 1 0 -28 0zM1178.5 160 a14 14 0 1 0 28 0 a14 14 0 1 0 -28 0zM1178.5 440 a14 14 0 1 0 28 0 a14 14 0 1 0 -28 0z" fill="url(#SvgjsLinearGradient1041)"></path><path d="M1213.5 300 a14 14 0 1 0 28 0 a14 14 0 1 0 -28 0zM1213.5 265 a14 14 0 1 0 28 0 a14 14 0 1 0 -28 0zM1213.5 335 a14 14 0 1 0 28 0 a14 14 0 1 0 -28 0zM1213.5 230 a14 14 0 1 0 28 0 a14 14 0 1 0 -28 0zM1213.5 370 a14 14 0 1 0 28 0 a14 14 0 1 0 -28 0zM1213.5 195 a14 14 0 1 0 28 0 a14 14 0 1 0 -28 0zM1213.5 405 a14 14 0 1 0 28 0 a14 14 0 1 0 -28 0zM1213.5 160 a14 14 0 1 0 28 0 a14 14 0 1 0 -28 0zM1213.5 440 a14 14 0 1 0 28 0 a14 14 0 1 0 -28 0z" fill="url(#SvgjsLinearGradient1041)"></path><path d="M1248.5 300 a14 14 0 1 0 28 0 a14 14 0 1 0 -28 0zM1248.5 265 a14 14 0 1 0 28 0 a14 14 0 1 0 -28 0zM1248.5 335 a14 14 0 1 0 28 0 a14 14 0 1 0 -28 0zM1248.5 230 a14 14 0 1 0 28 0 a14 14 0 1 0 -28 0zM1248.5 370 a14 14 0 1 0 28 0 a14 14 0 1 0 -28 0zM1248.5 195 a14 14 0 1 0 28 0 a14 14 0 1 0 -28 0zM1248.5 405 a14 14 0 1 0 28 0 a14 14 0 1 0 -28 0z" fill="url(#SvgjsLinearGradient1041)"></path><path d="M1283.5 300 a14 14 0 1 0 28 0 a14 14 0 1 0 -28 0zM1283.5 265 a14 14 0 1 0 28 0 a14 14 0 1 0 -28 0zM1283.5 335 a14 14 0 1 0 28 0 a14 14 0 1 0 -28 0zM1283.5 230 a14 14 0 1 0 28 0 a14 14 0 1 0 -28 0zM1283.5 370 a14 14 0 1 0 28 0 a14 14 0 1 0 -28 0zM1283.5 195 a14 14 0 1 0 28 0 a14 14 0 1 0 -28 0zM1283.5 405 a14 14 0 1 0 28 0 a14 14 0 1 0 -28 0z" fill="url(#SvgjsLinearGradient1041)"></path><path d="M1318.5 300 a14 14 0 1 0 28 0 a14 14 0 1 0 -28 0zM1318.5 265 a14 14 0 1 0 28 0 a14 14 0 1 0 -28 0zM1318.5 335 a14 14 0 1 0 28 0 a14 14 0 1 0 -28 0z" fill="url(#SvgjsLinearGradient1041)"></path><path d="M1353.5 300 a14 14 0 1 0 28 0 a14 14 0 1 0 -28 0zM1353.5 265 a14 14 0 1 0 28 0 a14 14 0 1 0 -28 0zM1353.5 335 a14 14 0 1 0 28 0 a14 14 0 1 0 -28 0zM1353.5 230 a14 14 0 1 0 28 0 a14 14 0 1 0 -28 0zM1353.5 370 a14 14 0 1 0 28 0 a14 14 0 1 0 -28 0zM1353.5 195 a14 14 0 1 0 28 0 a14 14 0 1 0 -28 0zM1353.5 405 a14 14 0 1 0 28 0 a14 14 0 1 0 -28 0zM1353.5 160 a14 14 0 1 0 28 0 a14 14 0 1 0 -28 0zM1353.5 440 a14 14 0 1 0 28 0 a14 14 0 1 0 -28 0z" fill="url(#SvgjsLinearGradient1041)"></path><path d="M1388.5 300 a14 14 0 1 0 28 0 a14 14 0 1 0 -28 0zM1388.5 265 a14 14 0 1 0 28 0 a14 14 0 1 0 -28 0zM1388.5 335 a14 14 0 1 0 28 0 a14 14 0 1 0 -28 0zM1388.5 230 a14 14 0 1 0 28 0 a14 14 0 1 0 -28 0zM1388.5 370 a14 14 0 1 0 28 0 a14 14 0 1 0 -28 0z" fill="url(#SvgjsLinearGradient1041)"></path><path d="M1423.5 300 a14 14 0 1 0 28 0 a14 14 0 1 0 -28 0zM1423.5 265 a14 14 0 1 0 28 0 a14 14 0 1 0 -28 0zM1423.5 335 a14 14 0 1 0 28 0 a14 14 0 1 0 -28 0z" fill="url(#SvgjsLinearGradient1041)"></path><path d="M1458.5 300 a14 14 0 1 0 28 0 a14 14 0 1 0 -28 0zM1458.5 265 a14 14 0 1 0 28 0 a14 14 0 1 0 -28 0zM1458.5 335 a14 14 0 1 0 28 0 a14 14 0 1 0 -28 0zM1458.5 230 a14 14 0 1 0 28 0 a14 14 0 1 0 -28 0zM1458.5 370 a14 14 0 1 0 28 0 a14 14 0 1 0 -28 0z" fill="url(#SvgjsLinearGradient1041)"></path><path d="M1493.5 300 a14 14 0 1 0 28 0 a14 14 0 1 0 -28 0zM1493.5 265 a14 14 0 1 0 28 0 a14 14 0 1 0 -28 0zM1493.5 335 a14 14 0 1 0 28 0 a14 14 0 1 0 -28 0zM1493.5 230 a14 14 0 1 0 28 0 a14 14 0 1 0 -28 0zM1493.5 370 a14 14 0 1 0 28 0 a14 14 0 1 0 -28 0zM1493.5 195 a14 14 0 1 0 28 0 a14 14 0 1 0 -28 0zM1493.5 405 a14 14 0 1 0 28 0 a14 14 0 1 0 -28 0z" fill="url(#SvgjsLinearGradient1041)"></path><path d="M1528.5 300 a14 14 0 1 0 28 0 a14 14 0 1 0 -28 0zM1528.5 265 a14 14 0 1 0 28 0 a14 14 0 1 0 -28 0zM1528.5 335 a14 14 0 1 0 28 0 a14 14 0 1 0 -28 0zM1528.5 230 a14 14 0 1 0 28 0 a14 14 0 1 0 -28 0zM1528.5 370 a14 14 0 1 0 28 0 a14 14 0 1 0 -28 0zM1528.5 195 a14 14 0 1 0 28 0 a14 14 0 1 0 -28 0zM1528.5 405 a14 14 0 1 0 28 0 a14 14 0 1 0 -28 0z" fill="url(#SvgjsLinearGradient1041)"></path><path d="M1563.5 300 a14 14 0 1 0 28 0 a14 14 0 1 0 -28 0zM1563.5 265 a14 14 0 1 0 28 0 a14 14 0 1 0 -28 0zM1563.5 335 a14 14 0 1 0 28 0 a14 14 0 1 0 -28 0z" fill="url(#SvgjsLinearGradient1041)"></path></g></g><defs><mask id="SvgjsMask1040"><rect width="2000" height="600" fill="#ffffff"></rect></mask><linearGradient x1="400" y1="300" x2="1600" y2="300" gradientUnits="userSpaceOnUse" id="SvgjsLinearGradient1041"><stop stop-color="rgba(25, 77, 133, 1)" offset="0"></stop><stop stop-color="rgba(13, 165, 140, 1)" offset="1"></stop></linearGradient><path d="M-14 0 a14 14 0 1 0 28 0 a14 14 0 1 0 -28 0zM-14 35 a14 14 0 1 0 28 0 a14 14 0 1 0 -28 0zM-14 -35 a14 14 0 1 0 28 0 a14 14 0 1 0 -28 0z"></path><path d="M-14 0 a14 14 0 1 0 28 0 a14 14 0 1 0 -28 0zM-14 35 a14 14 0 1 0 28 0 a14 14 0 1 0 -28 0zM-14 -35 a14 14 0 1 0 28 0 a14 14 0 1 0 -28 0zM-14 70 a14 14 0 1 0 28 0 a14 14 0 1 0 -28 0zM-14 -70 a14 14 0 1 0 28 0 a14 14 0 1 0 -28 0z"></path><path d="M-14 0 a14 14 0 1 0 28 0 a14 14 0 1 0 -28 0zM-14 35 a14 14 0 1 0 28 0 a14 14 0 1 0 -28 0zM-14 -35 a14 14 0 1 0 28 0 a14 14 0 1 0 -28 0zM-14 70 a14 14 0 1 0 28 0 a14 14 0 1 0 -28 0zM-14 -70 a14 14 0 1 0 28 0 a14 14 0 1 0 -28 0zM-14 105 a14 14 0 1 0 28 0 a14 14 0 1 0 -28 0zM-14 -105 a14 14 0 1 0 28 0 a14 14 0 1 0 -28 0z"></path><path d="M-14 0 a14 14 0 1 0 28 0 a14 14 0 1 0 -28 0zM-14 35 a14 14 0 1 0 28 0 a14 14 0 1 0 -28 0zM-14 -35 a14 14 0 1 0 28 0 a14 14 0 1 0 -28 0zM-14 70 a14 14 0 1 0 28 0 a14 14 0 1 0 -28 0zM-14 -70 a14 14 0 1 0 28 0 a14 14 0 1 0 -28 0zM-14 105 a14 14 0 1 0 28 0 a14 14 0 1 0 -28 0zM-14 -105 a14 14 0 1 0 28 0 a14 14 0 1 0 -28 0zM-14 140 a14 14 0 1 0 28 0 a14 14 0 1 0 -28 0zM-14 -140 a14 14 0 1 0 28 0 a14 14 0 1 0 -28 0z"></path><path d="M-14 0 a14 14 0 1 0 28 0 a14 14 0 1 0 -28 0zM-14 35 a14 14 0 1 0 28 0 a14 14 0 1 0 -28 0zM-14 -35 a14 14 0 1 0 28 0 a14 14 0 1 0 -28 0zM-14 70 a14 14 0 1 0 28 0 a14 14 0 1 0 -28 0zM-14 -70 a14 14 0 1 0 28 0 a14 14 0 1 0 -28 0zM-14 105 a14 14 0 1 0 28 0 a14 14 0 1 0 -28 0zM-14 -105 a14 14 0 1 0 28 0 a14 14 0 1 0 -28 0zM-14 140 a14 14 0 1 0 28 0 a14 14 0 1 0 -28 0zM-14 -140 a14 14 0 1 0 28 0 a14 14 0 1 0 -28 0zM-14 175 a14 14 0 1 0 28 0 a14 14 0 1 0 -28 0zM-14 -175 a14 14 0 1 0 28 0 a14 14 0 1 0 -28 0z"></path></defs></svg>