<svg xmlns="http://www.w3.org/2000/svg" version="1.1" xmlns:xlink="http://www.w3.org/1999/xlink" xmlns:svgjs="http://svgjs.com/svgjs" width="2000" height="800" preserveAspectRatio="none" viewBox="0 0 2000 800"><g mask="url(&quot;#SvgjsMask1020&quot;)" fill="none"><rect width="2000" height="800" x="0" y="0" fill="rgba(6, 30, 53, 1)"></rect><g transform="translate(220, 0)"><path d="M408.5 400 a14 14 0 1 0 28 0 a14 14 0 1 0 -28 0zM408.5 365 a14 14 0 1 0 28 0 a14 14 0 1 0 -28 0zM408.5 435 a14 14 0 1 0 28 0 a14 14 0 1 0 -28 0zM408.5 330 a14 14 0 1 0 28 0 a14 14 0 1 0 -28 0zM408.5 470 a14 14 0 1 0 28 0 a14 14 0 1 0 -28 0zM408.5 295 a14 14 0 1 0 28 0 a14 14 0 1 0 -28 0zM408.5 505 a14 14 0 1 0 28 0 a14 14 0 1 0 -28 0zM408.5 260 a14 14 0 1 0 28 0 a14 14 0 1 0 -28 0zM408.5 540 a14 14 0 1 0 28 0 a14 14 0 1 0 -28 0z" fill="url(#SvgjsLinearGradient1021)"></path><path d="M443.5 400 a14 14 0 1 0 28 0 a14 14 0 1 0 -28 0zM443.5 365 a14 14 0 1 0 28 0 a14 14 0 1 0 -28 0zM443.5 435 a14 14 0 1 0 28 0 a14 14 0 1 0 -28 0zM443.5 330 a14 14 0 1 0 28 0 a14 14 0 1 0 -28 0zM443.5 470 a14 14 0 1 0 28 0 a14 14 0 1 0 -28 0zM443.5 295 a14 14 0 1 0 28 0 a14 14 0 1 0 -28 0zM443.5 505 a14 14 0 1 0 28 0 a14 14 0 1 0 -28 0zM443.5 260 a14 14 0 1 0 28 0 a14 14 0 1 0 -28 0zM443.5 540 a14 14 0 1 0 28 0 a14 14 0 1 0 -28 0z" fill="url(#SvgjsLinearGradient1021)"></path><path d="M478.5 400 a14 14 0 1 0 28 0 a14 14 0 1 0 -28 0zM478.5 365 a14 14 0 1 0 28 0 a14 14 0 1 0 -28 0zM478.5 435 a14 14 0 1 0 28 0 a14 14 0 1 0 -28 0zM478.5 330 a14 14 0 1 0 28 0 a14 14 0 1 0 -28 0zM478.5 470 a14 14 0 1 0 28 0 a14 14 0 1 0 -28 0z" fill="url(#SvgjsLinearGradient1021)"></path><path d="M513.5 400 a14 14 0 1 0 28 0 a14 14 0 1 0 -28 0zM513.5 365 a14 14 0 1 0 28 0 a14 14 0 1 0 -28 0zM513.5 435 a14 14 0 1 0 28 0 a14 14 0 1 0 -28 0zM513.5 330 a14 14 0 1 0 28 0 a14 14 0 1 0 -28 0zM513.5 470 a14 14 0 1 0 28 0 a14 14 0 1 0 -28 0zM513.5 295 a14 14 0 1 0 28 0 a14 14 0 1 0 -28 0zM513.5 505 a14 14 0 1 0 28 0 a14 14 0 1 0 -28 0zM513.5 260 a14 14 0 1 0 28 0 a14 14 0 1 0 -28 0zM513.5 540 a14 14 0 1 0 28 0 a14 14 0 1 0 -28 0z" fill="url(#SvgjsLinearGradient1021)"></path><path d="M548.5 400 a14 14 0 1 0 28 0 a14 14 0 1 0 -28 0zM548.5 365 a14 14 0 1 0 28 0 a14 14 0 1 0 -28 0zM548.5 435 a14 14 0 1 0 28 0 a14 14 0 1 0 -28 0z" fill="url(#SvgjsLinearGradient1021)"></path><path d="M583.5 400 a14 14 0 1 0 28 0 a14 14 0 1 0 -28 0zM583.5 365 a14 14 0 1 0 28 0 a14 14 0 1 0 -28 0zM583.5 435 a14 14 0 1 0 28 0 a14 14 0 1 0 -28 0z" fill="url(#SvgjsLinearGradient1021)"></path><path d="M618.5 400 a14 14 0 1 0 28 0 a14 14 0 1 0 -28 0zM618.5 365 a14 14 0 1 0 28 0 a14 14 0 1 0 -28 0zM618.5 435 a14 14 0 1 0 28 0 a14 14 0 1 0 -28 0zM618.5 330 a14 14 0 1 0 28 0 a14 14 0 1 0 -28 0zM618.5 470 a14 14 0 1 0 28 0 a14 14 0 1 0 -28 0zM618.5 295 a14 14 0 1 0 28 0 a14 14 0 1 0 -28 0zM618.5 505 a14 14 0 1 0 28 0 a14 14 0 1 0 -28 0z" fill="url(#SvgjsLinearGradient1021)"></path><path d="M653.5 400 a14 14 0 1 0 28 0 a14 14 0 1 0 -28 0zM653.5 365 a14 14 0 1 0 28 0 a14 14 0 1 0 -28 0zM653.5 435 a14 14 0 1 0 28 0 a14 14 0 1 0 -28 0zM653.5 330 a14 14 0 1 0 28 0 a14 14 0 1 0 -28 0zM653.5 470 a14 14 0 1 0 28 0 a14 14 0 1 0 -28 0zM653.5 295 a14 14 0 1 0 28 0 a14 14 0 1 0 -28 0zM653.5 505 a14 14 0 1 0 28 0 a14 14 0 1 0 -28 0zM653.5 260 a14 14 0 1 0 28 0 a14 14 0 1 0 -28 0zM653.5 540 a14 14 0 1 0 28 0 a14 14 0 1 0 -28 0z" fill="url(#SvgjsLinearGradient1021)"></path><path d="M688.5 400 a14 14 0 1 0 28 0 a14 14 0 1 0 -28 0zM688.5 365 a14 14 0 1 0 28 0 a14 14 0 1 0 -28 0zM688.5 435 a14 14 0 1 0 28 0 a14 14 0 1 0 -28 0zM688.5 330 a14 14 0 1 0 28 0 a14 14 0 1 0 -28 0zM688.5 470 a14 14 0 1 0 28 0 a14 14 0 1 0 -28 0zM688.5 295 a14 14 0 1 0 28 0 a14 14 0 1 0 -28 0zM688.5 505 a14 14 0 1 0 28 0 a14 14 0 1 0 -28 0zM688.5 260 a14 14 0 1 0 28 0 a14 14 0 1 0 -28 0zM688.5 540 a14 14 0 1 0 28 0 a14 14 0 1 0 -28 0zM688.5 225 a14 14 0 1 0 28 0 a14 14 0 1 0 -28 0zM688.5 575 a14 14 0 1 0 28 0 a14 14 0 1 0 -28 0z" fill="url(#SvgjsLinearGradient1021)"></path><path d="M723.5 400 a14 14 0 1 0 28 0 a14 14 0 1 0 -28 0zM723.5 365 a14 14 0 1 0 28 0 a14 14 0 1 0 -28 0zM723.5 435 a14 14 0 1 0 28 0 a14 14 0 1 0 -28 0zM723.5 330 a14 14 0 1 0 28 0 a14 14 0 1 0 -28 0zM723.5 470 a14 14 0 1 0 28 0 a14 14 0 1 0 -28 0zM723.5 295 a14 14 0 1 0 28 0 a14 14 0 1 0 -28 0zM723.5 505 a14 14 0 1 0 28 0 a14 14 0 1 0 -28 0zM723.5 260 a14 14 0 1 0 28 0 a14 14 0 1 0 -28 0zM723.5 540 a14 14 0 1 0 28 0 a14 14 0 1 0 -28 0zM723.5 225 a14 14 0 1 0 28 0 a14 14 0 1 0 -28 0zM723.5 575 a14 14 0 1 0 28 0 a14 14 0 1 0 -28 0z" fill="url(#SvgjsLinearGradient1021)"></path><path d="M758.5 400 a14 14 0 1 0 28 0 a14 14 0 1 0 -28 0zM758.5 365 a14 14 0 1 0 28 0 a14 14 0 1 0 -28 0zM758.5 435 a14 14 0 1 0 28 0 a14 14 0 1 0 -28 0zM758.5 330 a14 14 0 1 0 28 0 a14 14 0 1 0 -28 0zM758.5 470 a14 14 0 1 0 28 0 a14 14 0 1 0 -28 0zM758.5 295 a14 14 0 1 0 28 0 a14 14 0 1 0 -28 0zM758.5 505 a14 14 0 1 0 28 0 a14 14 0 1 0 -28 0zM758.5 260 a14 14 0 1 0 28 0 a14 14 0 1 0 -28 0zM758.5 540 a14 14 0 1 0 28 0 a14 14 0 1 0 -28 0zM758.5 225 a14 14 0 1 0 28 0 a14 14 0 1 0 -28 0zM758.5 575 a14 14 0 1 0 28 0 a14 14 0 1 0 -28 0zM758.5 190 a14 14 0 1 0 28 0 a14 14 0 1 0 -28 0zM758.5 610 a14 14 0 1 0 28 0 a14 14 0 1 0 -28 0z" fill="url(#SvgjsLinearGradient1021)"></path><path d="M793.5 400 a14 14 0 1 0 28 0 a14 14 0 1 0 -28 0zM793.5 365 a14 14 0 1 0 28 0 a14 14 0 1 0 -28 0zM793.5 435 a14 14 0 1 0 28 0 a14 14 0 1 0 -28 0zM793.5 330 a14 14 0 1 0 28 0 a14 14 0 1 0 -28 0zM793.5 470 a14 14 0 1 0 28 0 a14 14 0 1 0 -28 0zM793.5 295 a14 14 0 1 0 28 0 a14 14 0 1 0 -28 0zM793.5 505 a14 14 0 1 0 28 0 a14 14 0 1 0 -28 0zM793.5 260 a14 14 0 1 0 28 0 a14 14 0 1 0 -28 0zM793.5 540 a14 14 0 1 0 28 0 a14 14 0 1 0 -28 0z" fill="url(#SvgjsLinearGradient1021)"></path><path d="M828.5 400 a14 14 0 1 0 28 0 a14 14 0 1 0 -28 0zM828.5 365 a14 14 0 1 0 28 0 a14 14 0 1 0 -28 0zM828.5 435 a14 14 0 1 0 28 0 a14 14 0 1 0 -28 0zM828.5 330 a14 14 0 1 0 28 0 a14 14 0 1 0 -28 0zM828.5 470 a14 14 0 1 0 28 0 a14 14 0 1 0 -28 0zM828.5 295 a14 14 0 1 0 28 0 a14 14 0 1 0 -28 0zM828.5 505 a14 14 0 1 0 28 0 a14 14 0 1 0 -28 0zM828.5 260 a14 14 0 1 0 28 0 a14 14 0 1 0 -28 0zM828.5 540 a14 14 0 1 0 28 0 a14 14 0 1 0 -28 0z" fill="url(#SvgjsLinearGradient1021)"></path><path d="M863.5 400 a14 14 0 1 0 28 0 a14 14 0 1 0 -28 0zM863.5 365 a14 14 0 1 0 28 0 a14 14 0 1 0 -28 0zM863.5 435 a14 14 0 1 0 28 0 a14 14 0 1 0 -28 0zM863.5 330 a14 14 0 1 0 28 0 a14 14 0 1 0 -28 0zM863.5 470 a14 14 0 1 0 28 0 a14 14 0 1 0 -28 0zM863.5 295 a14 14 0 1 0 28 0 a14 14 0 1 0 -28 0zM863.5 505 a14 14 0 1 0 28 0 a14 14 0 1 0 -28 0zM863.5 260 a14 14 0 1 0 28 0 a14 14 0 1 0 -28 0zM863.5 540 a14 14 0 1 0 28 0 a14 14 0 1 0 -28 0zM863.5 225 a14 14 0 1 0 28 0 a14 14 0 1 0 -28 0zM863.5 575 a14 14 0 1 0 28 0 a14 14 0 1 0 -28 0z" fill="url(#SvgjsLinearGradient1021)"></path><path d="M898.5 400 a14 14 0 1 0 28 0 a14 14 0 1 0 -28 0zM898.5 365 a14 14 0 1 0 28 0 a14 14 0 1 0 -28 0zM898.5 435 a14 14 0 1 0 28 0 a14 14 0 1 0 -28 0zM898.5 330 a14 14 0 1 0 28 0 a14 14 0 1 0 -28 0zM898.5 470 a14 14 0 1 0 28 0 a14 14 0 1 0 -28 0zM898.5 295 a14 14 0 1 0 28 0 a14 14 0 1 0 -28 0zM898.5 505 a14 14 0 1 0 28 0 a14 14 0 1 0 -28 0z" fill="url(#SvgjsLinearGradient1021)"></path><path d="M933.5 400 a14 14 0 1 0 28 0 a14 14 0 1 0 -28 0zM933.5 365 a14 14 0 1 0 28 0 a14 14 0 1 0 -28 0zM933.5 435 a14 14 0 1 0 28 0 a14 14 0 1 0 -28 0zM933.5 330 a14 14 0 1 0 28 0 a14 14 0 1 0 -28 0zM933.5 470 a14 14 0 1 0 28 0 a14 14 0 1 0 -28 0zM933.5 295 a14 14 0 1 0 28 0 a14 14 0 1 0 -28 0zM933.5 505 a14 14 0 1 0 28 0 a14 14 0 1 0 -28 0zM933.5 260 a14 14 0 1 0 28 0 a14 14 0 1 0 -28 0zM933.5 540 a14 14 0 1 0 28 0 a14 14 0 1 0 -28 0z" fill="url(#SvgjsLinearGradient1021)"></path><path d="M968.5 400 a14 14 0 1 0 28 0 a14 14 0 1 0 -28 0zM968.5 365 a14 14 0 1 0 28 0 a14 14 0 1 0 -28 0zM968.5 435 a14 14 0 1 0 28 0 a14 14 0 1 0 -28 0z" fill="url(#SvgjsLinearGradient1021)"></path><path d="M1003.5 400 a14 14 0 1 0 28 0 a14 14 0 1 0 -28 0zM1003.5 365 a14 14 0 1 0 28 0 a14 14 0 1 0 -28 0zM1003.5 435 a14 14 0 1 0 28 0 a14 14 0 1 0 -28 0zM1003.5 330 a14 14 0 1 0 28 0 a14 14 0 1 0 -28 0zM1003.5 470 a14 14 0 1 0 28 0 a14 14 0 1 0 -28 0zM1003.5 295 a14 14 0 1 0 28 0 a14 14 0 1 0 -28 0zM1003.5 505 a14 14 0 1 0 28 0 a14 14 0 1 0 -28 0z" fill="url(#SvgjsLinearGradient1021)"></path><path d="M1038.5 400 a14 14 0 1 0 28 0 a14 14 0 1 0 -28 0zM1038.5 365 a14 14 0 1 0 28 0 a14 14 0 1 0 -28 0zM1038.5 435 a14 14 0 1 0 28 0 a14 14 0 1 0 -28 0zM1038.5 330 a14 14 0 1 0 28 0 a14 14 0 1 0 -28 0zM1038.5 470 a14 14 0 1 0 28 0 a14 14 0 1 0 -28 0z" fill="url(#SvgjsLinearGradient1021)"></path><path d="M1073.5 400 a14 14 0 1 0 28 0 a14 14 0 1 0 -28 0zM1073.5 365 a14 14 0 1 0 28 0 a14 14 0 1 0 -28 0zM1073.5 435 a14 14 0 1 0 28 0 a14 14 0 1 0 -28 0zM1073.5 330 a14 14 0 1 0 28 0 a14 14 0 1 0 -28 0zM1073.5 470 a14 14 0 1 0 28 0 a14 14 0 1 0 -28 0zM1073.5 295 a14 14 0 1 0 28 0 a14 14 0 1 0 -28 0zM1073.5 505 a14 14 0 1 0 28 0 a14 14 0 1 0 -28 0zM1073.5 260 a14 14 0 1 0 28 0 a14 14 0 1 0 -28 0zM1073.5 540 a14 14 0 1 0 28 0 a14 14 0 1 0 -28 0zM1073.5 225 a14 14 0 1 0 28 0 a14 14 0 1 0 -28 0zM1073.5 575 a14 14 0 1 0 28 0 a14 14 0 1 0 -28 0zM1073.5 190 a14 14 0 1 0 28 0 a14 14 0 1 0 -28 0zM1073.5 610 a14 14 0 1 0 28 0 a14 14 0 1 0 -28 0z" fill="url(#SvgjsLinearGradient1021)"></path><path d="M1108.5 400 a14 14 0 1 0 28 0 a14 14 0 1 0 -28 0zM1108.5 365 a14 14 0 1 0 28 0 a14 14 0 1 0 -28 0zM1108.5 435 a14 14 0 1 0 28 0 a14 14 0 1 0 -28 0zM1108.5 330 a14 14 0 1 0 28 0 a14 14 0 1 0 -28 0zM1108.5 470 a14 14 0 1 0 28 0 a14 14 0 1 0 -28 0zM1108.5 295 a14 14 0 1 0 28 0 a14 14 0 1 0 -28 0zM1108.5 505 a14 14 0 1 0 28 0 a14 14 0 1 0 -28 0zM1108.5 260 a14 14 0 1 0 28 0 a14 14 0 1 0 -28 0zM1108.5 540 a14 14 0 1 0 28 0 a14 14 0 1 0 -28 0zM1108.5 225 a14 14 0 1 0 28 0 a14 14 0 1 0 -28 0zM1108.5 575 a14 14 0 1 0 28 0 a14 14 0 1 0 -28 0z" fill="url(#SvgjsLinearGradient1021)"></path><path d="M1143.5 400 a14 14 0 1 0 28 0 a14 14 0 1 0 -28 0zM1143.5 365 a14 14 0 1 0 28 0 a14 14 0 1 0 -28 0zM1143.5 435 a14 14 0 1 0 28 0 a14 14 0 1 0 -28 0zM1143.5 330 a14 14 0 1 0 28 0 a14 14 0 1 0 -28 0zM1143.5 470 a14 14 0 1 0 28 0 a14 14 0 1 0 -28 0zM1143.5 295 a14 14 0 1 0 28 0 a14 14 0 1 0 -28 0zM1143.5 505 a14 14 0 1 0 28 0 a14 14 0 1 0 -28 0zM1143.5 260 a14 14 0 1 0 28 0 a14 14 0 1 0 -28 0zM1143.5 540 a14 14 0 1 0 28 0 a14 14 0 1 0 -28 0zM1143.5 225 a14 14 0 1 0 28 0 a14 14 0 1 0 -28 0zM1143.5 575 a14 14 0 1 0 28 0 a14 14 0 1 0 -28 0z" fill="url(#SvgjsLinearGradient1021)"></path><path d="M1178.5 400 a14 14 0 1 0 28 0 a14 14 0 1 0 -28 0zM1178.5 365 a14 14 0 1 0 28 0 a14 14 0 1 0 -28 0zM1178.5 435 a14 14 0 1 0 28 0 a14 14 0 1 0 -28 0z" fill="url(#SvgjsLinearGradient1021)"></path><path d="M1213.5 400 a14 14 0 1 0 28 0 a14 14 0 1 0 -28 0zM1213.5 365 a14 14 0 1 0 28 0 a14 14 0 1 0 -28 0zM1213.5 435 a14 14 0 1 0 28 0 a14 14 0 1 0 -28 0zM1213.5 330 a14 14 0 1 0 28 0 a14 14 0 1 0 -28 0zM1213.5 470 a14 14 0 1 0 28 0 a14 14 0 1 0 -28 0zM1213.5 295 a14 14 0 1 0 28 0 a14 14 0 1 0 -28 0zM1213.5 505 a14 14 0 1 0 28 0 a14 14 0 1 0 -28 0z" fill="url(#SvgjsLinearGradient1021)"></path><path d="M1248.5 400 a14 14 0 1 0 28 0 a14 14 0 1 0 -28 0zM1248.5 365 a14 14 0 1 0 28 0 a14 14 0 1 0 -28 0zM1248.5 435 a14 14 0 1 0 28 0 a14 14 0 1 0 -28 0zM1248.5 330 a14 14 0 1 0 28 0 a14 14 0 1 0 -28 0zM1248.5 470 a14 14 0 1 0 28 0 a14 14 0 1 0 -28 0zM1248.5 295 a14 14 0 1 0 28 0 a14 14 0 1 0 -28 0zM1248.5 505 a14 14 0 1 0 28 0 a14 14 0 1 0 -28 0zM1248.5 260 a14 14 0 1 0 28 0 a14 14 0 1 0 -28 0zM1248.5 540 a14 14 0 1 0 28 0 a14 14 0 1 0 -28 0zM1248.5 225 a14 14 0 1 0 28 0 a14 14 0 1 0 -28 0zM1248.5 575 a14 14 0 1 0 28 0 a14 14 0 1 0 -28 0z" fill="url(#SvgjsLinearGradient1021)"></path><path d="M1283.5 400 a14 14 0 1 0 28 0 a14 14 0 1 0 -28 0zM1283.5 365 a14 14 0 1 0 28 0 a14 14 0 1 0 -28 0zM1283.5 435 a14 14 0 1 0 28 0 a14 14 0 1 0 -28 0zM1283.5 330 a14 14 0 1 0 28 0 a14 14 0 1 0 -28 0zM1283.5 470 a14 14 0 1 0 28 0 a14 14 0 1 0 -28 0zM1283.5 295 a14 14 0 1 0 28 0 a14 14 0 1 0 -28 0zM1283.5 505 a14 14 0 1 0 28 0 a14 14 0 1 0 -28 0zM1283.5 260 a14 14 0 1 0 28 0 a14 14 0 1 0 -28 0zM1283.5 540 a14 14 0 1 0 28 0 a14 14 0 1 0 -28 0z" fill="url(#SvgjsLinearGradient1021)"></path><path d="M1318.5 400 a14 14 0 1 0 28 0 a14 14 0 1 0 -28 0zM1318.5 365 a14 14 0 1 0 28 0 a14 14 0 1 0 -28 0zM1318.5 435 a14 14 0 1 0 28 0 a14 14 0 1 0 -28 0zM1318.5 330 a14 14 0 1 0 28 0 a14 14 0 1 0 -28 0zM1318.5 470 a14 14 0 1 0 28 0 a14 14 0 1 0 -28 0z" fill="url(#SvgjsLinearGradient1021)"></path><path d="M1353.5 400 a14 14 0 1 0 28 0 a14 14 0 1 0 -28 0zM1353.5 365 a14 14 0 1 0 28 0 a14 14 0 1 0 -28 0zM1353.5 435 a14 14 0 1 0 28 0 a14 14 0 1 0 -28 0zM1353.5 330 a14 14 0 1 0 28 0 a14 14 0 1 0 -28 0zM1353.5 470 a14 14 0 1 0 28 0 a14 14 0 1 0 -28 0zM1353.5 295 a14 14 0 1 0 28 0 a14 14 0 1 0 -28 0zM1353.5 505 a14 14 0 1 0 28 0 a14 14 0 1 0 -28 0zM1353.5 260 a14 14 0 1 0 28 0 a14 14 0 1 0 -28 0zM1353.5 540 a14 14 0 1 0 28 0 a14 14 0 1 0 -28 0zM1353.5 225 a14 14 0 1 0 28 0 a14 14 0 1 0 -28 0zM1353.5 575 a14 14 0 1 0 28 0 a14 14 0 1 0 -28 0z" fill="url(#SvgjsLinearGradient1021)"></path><path d="M1388.5 400 a14 14 0 1 0 28 0 a14 14 0 1 0 -28 0zM1388.5 365 a14 14 0 1 0 28 0 a14 14 0 1 0 -28 0zM1388.5 435 a14 14 0 1 0 28 0 a14 14 0 1 0 -28 0zM1388.5 330 a14 14 0 1 0 28 0 a14 14 0 1 0 -28 0zM1388.5 470 a14 14 0 1 0 28 0 a14 14 0 1 0 -28 0zM1388.5 295 a14 14 0 1 0 28 0 a14 14 0 1 0 -28 0zM1388.5 505 a14 14 0 1 0 28 0 a14 14 0 1 0 -28 0zM1388.5 260 a14 14 0 1 0 28 0 a14 14 0 1 0 -28 0zM1388.5 540 a14 14 0 1 0 28 0 a14 14 0 1 0 -28 0z" fill="url(#SvgjsLinearGradient1021)"></path><path d="M1423.5 400 a14 14 0 1 0 28 0 a14 14 0 1 0 -28 0zM1423.5 365 a14 14 0 1 0 28 0 a14 14 0 1 0 -28 0zM1423.5 435 a14 14 0 1 0 28 0 a14 14 0 1 0 -28 0zM1423.5 330 a14 14 0 1 0 28 0 a14 14 0 1 0 -28 0zM1423.5 470 a14 14 0 1 0 28 0 a14 14 0 1 0 -28 0zM1423.5 295 a14 14 0 1 0 28 0 a14 14 0 1 0 -28 0zM1423.5 505 a14 14 0 1 0 28 0 a14 14 0 1 0 -28 0zM1423.5 260 a14 14 0 1 0 28 0 a14 14 0 1 0 -28 0zM1423.5 540 a14 14 0 1 0 28 0 a14 14 0 1 0 -28 0zM1423.5 225 a14 14 0 1 0 28 0 a14 14 0 1 0 -28 0zM1423.5 575 a14 14 0 1 0 28 0 a14 14 0 1 0 -28 0z" fill="url(#SvgjsLinearGradient1021)"></path><path d="M1458.5 400 a14 14 0 1 0 28 0 a14 14 0 1 0 -28 0zM1458.5 365 a14 14 0 1 0 28 0 a14 14 0 1 0 -28 0zM1458.5 435 a14 14 0 1 0 28 0 a14 14 0 1 0 -28 0zM1458.5 330 a14 14 0 1 0 28 0 a14 14 0 1 0 -28 0zM1458.5 470 a14 14 0 1 0 28 0 a14 14 0 1 0 -28 0zM1458.5 295 a14 14 0 1 0 28 0 a14 14 0 1 0 -28 0zM1458.5 505 a14 14 0 1 0 28 0 a14 14 0 1 0 -28 0zM1458.5 260 a14 14 0 1 0 28 0 a14 14 0 1 0 -28 0zM1458.5 540 a14 14 0 1 0 28 0 a14 14 0 1 0 -28 0zM1458.5 225 a14 14 0 1 0 28 0 a14 14 0 1 0 -28 0zM1458.5 575 a14 14 0 1 0 28 0 a14 14 0 1 0 -28 0zM1458.5 190 a14 14 0 1 0 28 0 a14 14 0 1 0 -28 0zM1458.5 610 a14 14 0 1 0 28 0 a14 14 0 1 0 -28 0z" fill="url(#SvgjsLinearGradient1021)"></path><path d="M1493.5 400 a14 14 0 1 0 28 0 a14 14 0 1 0 -28 0zM1493.5 365 a14 14 0 1 0 28 0 a14 14 0 1 0 -28 0zM1493.5 435 a14 14 0 1 0 28 0 a14 14 0 1 0 -28 0z" fill="url(#SvgjsLinearGradient1021)"></path><path d="M1528.5 400 a14 14 0 1 0 28 0 a14 14 0 1 0 -28 0zM1528.5 365 a14 14 0 1 0 28 0 a14 14 0 1 0 -28 0zM1528.5 435 a14 14 0 1 0 28 0 a14 14 0 1 0 -28 0zM1528.5 330 a14 14 0 1 0 28 0 a14 14 0 1 0 -28 0zM1528.5 470 a14 14 0 1 0 28 0 a14 14 0 1 0 -28 0zM1528.5 295 a14 14 0 1 0 28 0 a14 14 0 1 0 -28 0zM1528.5 505 a14 14 0 1 0 28 0 a14 14 0 1 0 -28 0zM1528.5 260 a14 14 0 1 0 28 0 a14 14 0 1 0 -28 0zM1528.5 540 a14 14 0 1 0 28 0 a14 14 0 1 0 -28 0zM1528.5 225 a14 14 0 1 0 28 0 a14 14 0 1 0 -28 0zM1528.5 575 a14 14 0 1 0 28 0 a14 14 0 1 0 -28 0zM1528.5 190 a14 14 0 1 0 28 0 a14 14 0 1 0 -28 0zM1528.5 610 a14 14 0 1 0 28 0 a14 14 0 1 0 -28 0z" fill="url(#SvgjsLinearGradient1021)"></path><path d="M1563.5 400 a14 14 0 1 0 28 0 a14 14 0 1 0 -28 0zM1563.5 365 a14 14 0 1 0 28 0 a14 14 0 1 0 -28 0zM1563.5 435 a14 14 0 1 0 28 0 a14 14 0 1 0 -28 0zM1563.5 330 a14 14 0 1 0 28 0 a14 14 0 1 0 -28 0zM1563.5 470 a14 14 0 1 0 28 0 a14 14 0 1 0 -28 0zM1563.5 295 a14 14 0 1 0 28 0 a14 14 0 1 0 -28 0zM1563.5 505 a14 14 0 1 0 28 0 a14 14 0 1 0 -28 0zM1563.5 260 a14 14 0 1 0 28 0 a14 14 0 1 0 -28 0zM1563.5 540 a14 14 0 1 0 28 0 a14 14 0 1 0 -28 0zM1563.5 225 a14 14 0 1 0 28 0 a14 14 0 1 0 -28 0zM1563.5 575 a14 14 0 1 0 28 0 a14 14 0 1 0 -28 0z" fill="url(#SvgjsLinearGradient1021)"></path></g></g><defs><mask id="SvgjsMask1020"><rect width="2000" height="800" fill="#ffffff"></rect></mask><linearGradient x1="400" y1="400" x2="1600" y2="400" gradientUnits="userSpaceOnUse" id="SvgjsLinearGradient1021"><stop stop-color="rgba(25, 77, 133, 1)" offset="0"></stop><stop stop-color="rgba(13, 165, 140, 1)" offset="1"></stop></linearGradient><path d="M-14 0 a14 14 0 1 0 28 0 a14 14 0 1 0 -28 0zM-14 35 a14 14 0 1 0 28 0 a14 14 0 1 0 -28 0zM-14 -35 a14 14 0 1 0 28 0 a14 14 0 1 0 -28 0z"></path><path d="M-14 0 a14 14 0 1 0 28 0 a14 14 0 1 0 -28 0zM-14 35 a14 14 0 1 0 28 0 a14 14 0 1 0 -28 0zM-14 -35 a14 14 0 1 0 28 0 a14 14 0 1 0 -28 0zM-14 70 a14 14 0 1 0 28 0 a14 14 0 1 0 -28 0zM-14 -70 a14 14 0 1 0 28 0 a14 14 0 1 0 -28 0z"></path><path d="M-14 0 a14 14 0 1 0 28 0 a14 14 0 1 0 -28 0zM-14 35 a14 14 0 1 0 28 0 a14 14 0 1 0 -28 0zM-14 -35 a14 14 0 1 0 28 0 a14 14 0 1 0 -28 0zM-14 70 a14 14 0 1 0 28 0 a14 14 0 1 0 -28 0zM-14 -70 a14 14 0 1 0 28 0 a14 14 0 1 0 -28 0zM-14 105 a14 14 0 1 0 28 0 a14 14 0 1 0 -28 0zM-14 -105 a14 14 0 1 0 28 0 a14 14 0 1 0 -28 0z"></path><path d="M-14 0 a14 14 0 1 0 28 0 a14 14 0 1 0 -28 0zM-14 35 a14 14 0 1 0 28 0 a14 14 0 1 0 -28 0zM-14 -35 a14 14 0 1 0 28 0 a14 14 0 1 0 -28 0zM-14 70 a14 14 0 1 0 28 0 a14 14 0 1 0 -28 0zM-14 -70 a14 14 0 1 0 28 0 a14 14 0 1 0 -28 0zM-14 105 a14 14 0 1 0 28 0 a14 14 0 1 0 -28 0zM-14 -105 a14 14 0 1 0 28 0 a14 14 0 1 0 -28 0zM-14 140 a14 14 0 1 0 28 0 a14 14 0 1 0 -28 0zM-14 -140 a14 14 0 1 0 28 0 a14 14 0 1 0 -28 0z"></path><path d="M-14 0 a14 14 0 1 0 28 0 a14 14 0 1 0 -28 0zM-14 35 a14 14 0 1 0 28 0 a14 14 0 1 0 -28 0zM-14 -35 a14 14 0 1 0 28 0 a14 14 0 1 0 -28 0zM-14 70 a14 14 0 1 0 28 0 a14 14 0 1 0 -28 0zM-14 -70 a14 14 0 1 0 28 0 a14 14 0 1 0 -28 0zM-14 105 a14 14 0 1 0 28 0 a14 14 0 1 0 -28 0zM-14 -105 a14 14 0 1 0 28 0 a14 14 0 1 0 -28 0zM-14 140 a14 14 0 1 0 28 0 a14 14 0 1 0 -28 0zM-14 -140 a14 14 0 1 0 28 0 a14 14 0 1 0 -28 0zM-14 175 a14 14 0 1 0 28 0 a14 14 0 1 0 -28 0zM-14 -175 a14 14 0 1 0 28 0 a14 14 0 1 0 -28 0z"></path><path d="M-14 0 a14 14 0 1 0 28 0 a14 14 0 1 0 -28 0zM-14 35 a14 14 0 1 0 28 0 a14 14 0 1 0 -28 0zM-14 -35 a14 14 0 1 0 28 0 a14 14 0 1 0 -28 0zM-14 70 a14 14 0 1 0 28 0 a14 14 0 1 0 -28 0zM-14 -70 a14 14 0 1 0 28 0 a14 14 0 1 0 -28 0zM-14 105 a14 14 0 1 0 28 0 a14 14 0 1 0 -28 0zM-14 -105 a14 14 0 1 0 28 0 a14 14 0 1 0 -28 0zM-14 140 a14 14 0 1 0 28 0 a14 14 0 1 0 -28 0zM-14 -140 a14 14 0 1 0 28 0 a14 14 0 1 0 -28 0zM-14 175 a14 14 0 1 0 28 0 a14 14 0 1 0 -28 0zM-14 -175 a14 14 0 1 0 28 0 a14 14 0 1 0 -28 0zM-14 210 a14 14 0 1 0 28 0 a14 14 0 1 0 -28 0zM-14 -210 a14 14 0 1 0 28 0 a14 14 0 1 0 -28 0z"></path></defs></svg>