<svg xmlns="http://www.w3.org/2000/svg" version="1.1" xmlns:xlink="http://www.w3.org/1999/xlink" xmlns:svgjs="http://svgjs.com/svgjs" width="1440" height="560" preserveAspectRatio="none" viewBox="0 0 1440 560"><g mask="url(&quot;#SvgjsMask10579&quot;)" fill="none"><rect width="1440" height="560" x="0" y="0" fill="url(#SvgjsLinearGradient10580)"></rect><g transform="translate(158.4, 0)" stroke-linecap="round" stroke="url(#SvgjsLinearGradient10581)"><path d="M270 226.03 L270 333.97" stroke-width="22.5"></path><path d="M300 241.59 L300 318.41" stroke-width="22.5"></path><path d="M330 160.31 L330 399.69" stroke-width="22.5"></path><path d="M360 176.5 L360 383.5" stroke-width="22.5"></path><path d="M390 127.57 L390 432.43" stroke-width="22.5"></path><path d="M420 121.33 L420 438.67" stroke-width="22.5"></path><path d="M450 111.5 L450 448.5" stroke-width="22.5"></path><path d="M480 137.95 L480 422.05" stroke-width="22.5"></path><path d="M510 184.67 L510 375.33" stroke-width="22.5"></path><path d="M540 189.45 L540 370.55" stroke-width="22.5"></path><path d="M570 167.3 L570 392.7" stroke-width="22.5"></path><path d="M600 199.36 L600 360.64" stroke-width="22.5"></path><path d="M630 135.88 L630 424.13" stroke-width="22.5"></path><path d="M660 249.03 L660 310.96" stroke-width="22.5"></path><path d="M690 133.25 L690 426.75" stroke-width="22.5"></path><path d="M720 240.48 L720 319.52" stroke-width="22.5"></path><path d="M750 226.79 L750 333.21" stroke-width="22.5"></path><path d="M780 115.5 L780 444.5" stroke-width="22.5"></path><path d="M810 118.21 L810 441.79" stroke-width="22.5"></path><path d="M840 216.27 L840 343.73" stroke-width="22.5"></path><path d="M870 245.63 L870 314.37" stroke-width="22.5"></path><path d="M900 260.7 L900 299.3" stroke-width="22.5"></path><path d="M930 159.21 L930 400.79" stroke-width="22.5"></path><path d="M960 238.38 L960 321.62" stroke-width="22.5"></path><path d="M990 151.98 L990 408.02" stroke-width="22.5"></path><path d="M1020 127.1 L1020 432.9" stroke-width="22.5"></path><path d="M1050 118.54 L1050 441.46" stroke-width="22.5"></path><path d="M1080 253.12 L1080 306.88" stroke-width="22.5"></path><path d="M1110 153 L1110 407" stroke-width="22.5"></path><path d="M1140 196.78 L1140 363.22" stroke-width="22.5"></path><path d="M1170 230.83 L1170 329.17" stroke-width="22.5"></path></g></g><defs><mask id="SvgjsMask10579"><rect width="1440" height="560" fill="#ffffff"></rect></mask><linearGradient x1="50%" y1="100%" x2="50%" y2="0%" gradientUnits="userSpaceOnUse" id="SvgjsLinearGradient10580"><stop stop-color="rgba(17, 17, 30, 1)" offset="0"></stop><stop stop-color="rgba(65, 68, 129, 1)" offset="0.99"></stop></linearGradient><linearGradient x1="390.02112" y1="610.01584" x2="1049.97888" y2="-50.01584" gradientUnits="userSpaceOnUse" id="SvgjsLinearGradient10581"><stop stop-color="rgba(33, 81, 192, 1)" offset="0"></stop><stop stop-color="rgba(118, 196, 150, 1)" offset="1"></stop></linearGradient></defs></svg>