<svg xmlns="http://www.w3.org/2000/svg" version="1.1" xmlns:xlink="http://www.w3.org/1999/xlink" xmlns:svgjs="http://svgjs.com/svgjs" width="2000" height="800" preserveAspectRatio="none" viewBox="0 0 2000 800"><g mask="url(&quot;#SvgjsMask1213&quot;)" fill="none"><rect width="2000" height="800" x="0" y="0" fill="rgba(6, 30, 53, 1)"></rect><g transform="translate(200, 0)" stroke-linecap="round" stroke="url(#SvgjsLinearGradient1214)"><path d="M422.5 201.885 L422.5 306.885" stroke-width="26.25"></path><path d="M422.5 346.26 L422.5 598.115" stroke-width="26.25"></path><path d="M457.5 336.825 L457.5 463.175" stroke-width="26.25"></path><path d="M492.5 227.675 L492.5 385.175" stroke-width="26.25"></path><path d="M492.5 424.55 L492.5 477.05" stroke-width="26.25"></path><path d="M492.5 516.425 L492.5 572.325" stroke-width="26.25"></path><path d="M527.5 256.435 L527.5 361.435" stroke-width="26.25"></path><path d="M527.5 400.81 L527.5 427.06" stroke-width="26.25"></path><path d="M527.5 466.435 L527.5 543.565" stroke-width="26.25"></path><path d="M562.5 380.575 L562.5 419.425" stroke-width="26.25"></path><path d="M597.5 266.54499999999996 L597.5 319.04499999999996" stroke-width="26.25"></path><path d="M597.5 358.41999999999996 L597.5 410.91999999999996" stroke-width="26.25"></path><path d="M597.5 450.29499999999996 L597.5 533.455" stroke-width="26.25"></path><path d="M632.5 365.495 L632.5 434.505" stroke-width="26.25"></path><path d="M667.5 307.315 L667.5 359.815" stroke-width="26.25"></path><path d="M667.5 399.19 L667.5 425.44" stroke-width="26.25"></path><path d="M667.5 464.815 L667.5 492.685" stroke-width="26.25"></path><path d="M702.5 280.005 L702.5 519.995" stroke-width="26.25"></path><path d="M737.5 206.655 L737.5 442.905" stroke-width="26.25"></path><path d="M737.5 482.28 L737.5 508.53" stroke-width="26.25"></path><path d="M737.5 547.905 L737.5 593.345" stroke-width="26.25"></path><path d="M772.5 252.435 L772.5 278.685" stroke-width="26.25"></path><path d="M772.5 318.06 L772.5 547.555" stroke-width="26.25"></path><path d="M807.5 224.125 L807.5 575.875" stroke-width="26.25"></path><path d="M842.5 328.835 L842.5 471.165" stroke-width="26.25"></path><path d="M877.5 386.635 L877.5 413.365" stroke-width="26.25"></path><path d="M912.5 375.985 L912.5 424.015" stroke-width="26.25"></path><path d="M947.5 205.495 L947.5 362.995" stroke-width="26.25"></path><path d="M947.5 402.37 L947.5 428.62" stroke-width="26.25"></path><path d="M947.5 467.995 L947.5 594.505" stroke-width="26.25"></path><path d="M982.5 343.155 L982.5 369.405" stroke-width="26.25"></path><path d="M982.5 408.78 L982.5 456.845" stroke-width="26.25"></path><path d="M1017.5 303.995 L1017.5 356.495" stroke-width="26.25"></path><path d="M1017.5 395.87 L1017.5 422.12" stroke-width="26.25"></path><path d="M1017.5 461.495 L1017.5 496.005" stroke-width="26.25"></path><path d="M1052.5 331.095 L1052.5 468.905" stroke-width="26.25"></path><path d="M1087.5 175.035 L1087.5 385.03499999999997" stroke-width="26.25"></path><path d="M1087.5 424.40999999999997 L1087.5 624.965" stroke-width="26.25"></path><path d="M1122.5 198.775 L1122.5 408.775" stroke-width="26.25"></path><path d="M1122.5 448.15 L1122.5 526.9" stroke-width="26.25"></path><path d="M1122.5 566.275 L1122.5 601.235" stroke-width="26.25"></path><path d="M1157.5 199.385 L1157.5 251.885" stroke-width="26.25"></path><path d="M1157.5 291.26 L1157.5 600.615" stroke-width="26.25"></path><path d="M1192.5 258.945 L1192.5 363.945" stroke-width="26.25"></path><path d="M1192.5 403.32 L1192.5 429.57" stroke-width="26.25"></path><path d="M1192.5 468.945 L1192.5 541.055" stroke-width="26.25"></path><path d="M1227.5 313.995 L1227.5 340.245" stroke-width="26.25"></path><path d="M1227.5 379.62 L1227.5 405.87" stroke-width="26.25"></path><path d="M1227.5 445.245 L1227.5 486.005" stroke-width="26.25"></path><path d="M1262.5 329.435 L1262.5 470.565" stroke-width="26.25"></path><path d="M1297.5 322.225 L1297.5 477.775" stroke-width="26.25"></path><path d="M1332.5 216.625 L1332.5 242.875" stroke-width="26.25"></path><path d="M1332.5 282.25 L1332.5 387.25" stroke-width="26.25"></path><path d="M1332.5 426.625 L1332.5 583.375" stroke-width="26.25"></path><path d="M1367.5 190.225 L1367.5 347.725" stroke-width="26.25"></path><path d="M1367.5 387.1 L1367.5 609.765" stroke-width="26.25"></path><path d="M1402.5 217.495 L1402.5 296.245" stroke-width="26.25"></path><path d="M1402.5 335.62 L1402.5 440.62" stroke-width="26.25"></path><path d="M1402.5 479.995 L1402.5 582.505" stroke-width="26.25"></path><path d="M1437.5 328.315 L1437.5 354.565" stroke-width="26.25"></path><path d="M1437.5 393.94 L1437.5 471.685" stroke-width="26.25"></path><path d="M1472.5 337.065 L1472.5 462.935" stroke-width="26.25"></path><path d="M1507.5 213.115 L1507.5 396.865" stroke-width="26.25"></path><path d="M1507.5 436.24 L1507.5 488.74" stroke-width="26.25"></path><path d="M1507.5 528.115 L1507.5 586.885" stroke-width="26.25"></path><path d="M1542.5 238.255 L1542.5 422.005" stroke-width="26.25"></path><path d="M1542.5 461.38 L1542.5 561.755" stroke-width="26.25"></path><path d="M1577.5 288.875 L1577.5 393.875" stroke-width="26.25"></path><path d="M1577.5 433.25 L1577.5 511.125" stroke-width="26.25"></path></g></g><defs><mask id="SvgjsMask1213"><rect width="2000" height="800" fill="#ffffff"></rect></mask><linearGradient x1="400" y1="400" x2="1600" y2="400" gradientUnits="userSpaceOnUse" id="SvgjsLinearGradient1214"><stop stop-color="rgba(25, 77, 133, 1)" offset="0"></stop><stop stop-color="rgba(13, 165, 140, 1)" offset="1"></stop></linearGradient></defs></svg>