<svg xmlns="http://www.w3.org/2000/svg" version="1.1" xmlns:xlink="http://www.w3.org/1999/xlink" xmlns:svgjs="http://svgjs.com/svgjs" width="2000" height="600" preserveAspectRatio="none" viewBox="0 0 2000 600"><g mask="url(&quot;#SvgjsMask1128&quot;)" fill="none"><rect width="2000" height="600" x="0" y="0" fill="rgba(6, 30, 53, 1)"></rect><g transform="translate(0, 0)"><path d="M611.4 300 a11.6 11.6 0 1 0 23.2 0 a11.6 11.6 0 1 0 -23.2 0zM611.4 271 a11.6 11.6 0 1 0 23.2 0 a11.6 11.6 0 1 0 -23.2 0zM611.4 329 a11.6 11.6 0 1 0 23.2 0 a11.6 11.6 0 1 0 -23.2 0zM611.4 242 a11.6 11.6 0 1 0 23.2 0 a11.6 11.6 0 1 0 -23.2 0zM611.4 358 a11.6 11.6 0 1 0 23.2 0 a11.6 11.6 0 1 0 -23.2 0zM611.4 213 a11.6 11.6 0 1 0 23.2 0 a11.6 11.6 0 1 0 -23.2 0zM611.4 387 a11.6 11.6 0 1 0 23.2 0 a11.6 11.6 0 1 0 -23.2 0z" fill="url(#SvgjsLinearGradient1129)"></path><path d="M640.4 300 a11.6 11.6 0 1 0 23.2 0 a11.6 11.6 0 1 0 -23.2 0zM640.4 271 a11.6 11.6 0 1 0 23.2 0 a11.6 11.6 0 1 0 -23.2 0zM640.4 329 a11.6 11.6 0 1 0 23.2 0 a11.6 11.6 0 1 0 -23.2 0z" fill="url(#SvgjsLinearGradient1129)"></path><path d="M669.4 300 a11.6 11.6 0 1 0 23.2 0 a11.6 11.6 0 1 0 -23.2 0zM669.4 271 a11.6 11.6 0 1 0 23.2 0 a11.6 11.6 0 1 0 -23.2 0zM669.4 329 a11.6 11.6 0 1 0 23.2 0 a11.6 11.6 0 1 0 -23.2 0zM669.4 242 a11.6 11.6 0 1 0 23.2 0 a11.6 11.6 0 1 0 -23.2 0zM669.4 358 a11.6 11.6 0 1 0 23.2 0 a11.6 11.6 0 1 0 -23.2 0zM669.4 213 a11.6 11.6 0 1 0 23.2 0 a11.6 11.6 0 1 0 -23.2 0zM669.4 387 a11.6 11.6 0 1 0 23.2 0 a11.6 11.6 0 1 0 -23.2 0z" fill="url(#SvgjsLinearGradient1129)"></path><path d="M698.4 300 a11.6 11.6 0 1 0 23.2 0 a11.6 11.6 0 1 0 -23.2 0zM698.4 271 a11.6 11.6 0 1 0 23.2 0 a11.6 11.6 0 1 0 -23.2 0zM698.4 329 a11.6 11.6 0 1 0 23.2 0 a11.6 11.6 0 1 0 -23.2 0zM698.4 242 a11.6 11.6 0 1 0 23.2 0 a11.6 11.6 0 1 0 -23.2 0zM698.4 358 a11.6 11.6 0 1 0 23.2 0 a11.6 11.6 0 1 0 -23.2 0z" fill="url(#SvgjsLinearGradient1129)"></path><path d="M727.4 300 a11.6 11.6 0 1 0 23.2 0 a11.6 11.6 0 1 0 -23.2 0zM727.4 271 a11.6 11.6 0 1 0 23.2 0 a11.6 11.6 0 1 0 -23.2 0zM727.4 329 a11.6 11.6 0 1 0 23.2 0 a11.6 11.6 0 1 0 -23.2 0z" fill="url(#SvgjsLinearGradient1129)"></path><path d="M756.4 300 a11.6 11.6 0 1 0 23.2 0 a11.6 11.6 0 1 0 -23.2 0zM756.4 271 a11.6 11.6 0 1 0 23.2 0 a11.6 11.6 0 1 0 -23.2 0zM756.4 329 a11.6 11.6 0 1 0 23.2 0 a11.6 11.6 0 1 0 -23.2 0zM756.4 242 a11.6 11.6 0 1 0 23.2 0 a11.6 11.6 0 1 0 -23.2 0zM756.4 358 a11.6 11.6 0 1 0 23.2 0 a11.6 11.6 0 1 0 -23.2 0zM756.4 213 a11.6 11.6 0 1 0 23.2 0 a11.6 11.6 0 1 0 -23.2 0zM756.4 387 a11.6 11.6 0 1 0 23.2 0 a11.6 11.6 0 1 0 -23.2 0z" fill="url(#SvgjsLinearGradient1129)"></path><path d="M785.4 300 a11.6 11.6 0 1 0 23.2 0 a11.6 11.6 0 1 0 -23.2 0zM785.4 271 a11.6 11.6 0 1 0 23.2 0 a11.6 11.6 0 1 0 -23.2 0zM785.4 329 a11.6 11.6 0 1 0 23.2 0 a11.6 11.6 0 1 0 -23.2 0zM785.4 242 a11.6 11.6 0 1 0 23.2 0 a11.6 11.6 0 1 0 -23.2 0zM785.4 358 a11.6 11.6 0 1 0 23.2 0 a11.6 11.6 0 1 0 -23.2 0z" fill="url(#SvgjsLinearGradient1129)"></path><path d="M814.4 300 a11.6 11.6 0 1 0 23.2 0 a11.6 11.6 0 1 0 -23.2 0zM814.4 271 a11.6 11.6 0 1 0 23.2 0 a11.6 11.6 0 1 0 -23.2 0zM814.4 329 a11.6 11.6 0 1 0 23.2 0 a11.6 11.6 0 1 0 -23.2 0zM814.4 242 a11.6 11.6 0 1 0 23.2 0 a11.6 11.6 0 1 0 -23.2 0zM814.4 358 a11.6 11.6 0 1 0 23.2 0 a11.6 11.6 0 1 0 -23.2 0zM814.4 213 a11.6 11.6 0 1 0 23.2 0 a11.6 11.6 0 1 0 -23.2 0zM814.4 387 a11.6 11.6 0 1 0 23.2 0 a11.6 11.6 0 1 0 -23.2 0z" fill="url(#SvgjsLinearGradient1129)"></path><path d="M843.4 300 a11.6 11.6 0 1 0 23.2 0 a11.6 11.6 0 1 0 -23.2 0zM843.4 271 a11.6 11.6 0 1 0 23.2 0 a11.6 11.6 0 1 0 -23.2 0zM843.4 329 a11.6 11.6 0 1 0 23.2 0 a11.6 11.6 0 1 0 -23.2 0zM843.4 242 a11.6 11.6 0 1 0 23.2 0 a11.6 11.6 0 1 0 -23.2 0zM843.4 358 a11.6 11.6 0 1 0 23.2 0 a11.6 11.6 0 1 0 -23.2 0zM843.4 213 a11.6 11.6 0 1 0 23.2 0 a11.6 11.6 0 1 0 -23.2 0zM843.4 387 a11.6 11.6 0 1 0 23.2 0 a11.6 11.6 0 1 0 -23.2 0zM843.4 184 a11.6 11.6 0 1 0 23.2 0 a11.6 11.6 0 1 0 -23.2 0zM843.4 416 a11.6 11.6 0 1 0 23.2 0 a11.6 11.6 0 1 0 -23.2 0z" fill="url(#SvgjsLinearGradient1129)"></path><path d="M872.4 300 a11.6 11.6 0 1 0 23.2 0 a11.6 11.6 0 1 0 -23.2 0zM872.4 271 a11.6 11.6 0 1 0 23.2 0 a11.6 11.6 0 1 0 -23.2 0zM872.4 329 a11.6 11.6 0 1 0 23.2 0 a11.6 11.6 0 1 0 -23.2 0zM872.4 242 a11.6 11.6 0 1 0 23.2 0 a11.6 11.6 0 1 0 -23.2 0zM872.4 358 a11.6 11.6 0 1 0 23.2 0 a11.6 11.6 0 1 0 -23.2 0zM872.4 213 a11.6 11.6 0 1 0 23.2 0 a11.6 11.6 0 1 0 -23.2 0zM872.4 387 a11.6 11.6 0 1 0 23.2 0 a11.6 11.6 0 1 0 -23.2 0z" fill="url(#SvgjsLinearGradient1129)"></path><path d="M901.4 300 a11.6 11.6 0 1 0 23.2 0 a11.6 11.6 0 1 0 -23.2 0zM901.4 271 a11.6 11.6 0 1 0 23.2 0 a11.6 11.6 0 1 0 -23.2 0zM901.4 329 a11.6 11.6 0 1 0 23.2 0 a11.6 11.6 0 1 0 -23.2 0zM901.4 242 a11.6 11.6 0 1 0 23.2 0 a11.6 11.6 0 1 0 -23.2 0zM901.4 358 a11.6 11.6 0 1 0 23.2 0 a11.6 11.6 0 1 0 -23.2 0z" fill="url(#SvgjsLinearGradient1129)"></path><path d="M930.4 300 a11.6 11.6 0 1 0 23.2 0 a11.6 11.6 0 1 0 -23.2 0zM930.4 271 a11.6 11.6 0 1 0 23.2 0 a11.6 11.6 0 1 0 -23.2 0zM930.4 329 a11.6 11.6 0 1 0 23.2 0 a11.6 11.6 0 1 0 -23.2 0zM930.4 242 a11.6 11.6 0 1 0 23.2 0 a11.6 11.6 0 1 0 -23.2 0zM930.4 358 a11.6 11.6 0 1 0 23.2 0 a11.6 11.6 0 1 0 -23.2 0zM930.4 213 a11.6 11.6 0 1 0 23.2 0 a11.6 11.6 0 1 0 -23.2 0zM930.4 387 a11.6 11.6 0 1 0 23.2 0 a11.6 11.6 0 1 0 -23.2 0zM930.4 184 a11.6 11.6 0 1 0 23.2 0 a11.6 11.6 0 1 0 -23.2 0zM930.4 416 a11.6 11.6 0 1 0 23.2 0 a11.6 11.6 0 1 0 -23.2 0z" fill="url(#SvgjsLinearGradient1129)"></path><path d="M959.4 300 a11.6 11.6 0 1 0 23.2 0 a11.6 11.6 0 1 0 -23.2 0zM959.4 271 a11.6 11.6 0 1 0 23.2 0 a11.6 11.6 0 1 0 -23.2 0zM959.4 329 a11.6 11.6 0 1 0 23.2 0 a11.6 11.6 0 1 0 -23.2 0zM959.4 242 a11.6 11.6 0 1 0 23.2 0 a11.6 11.6 0 1 0 -23.2 0zM959.4 358 a11.6 11.6 0 1 0 23.2 0 a11.6 11.6 0 1 0 -23.2 0z" fill="url(#SvgjsLinearGradient1129)"></path><path d="M988.4 300 a11.6 11.6 0 1 0 23.2 0 a11.6 11.6 0 1 0 -23.2 0zM988.4 271 a11.6 11.6 0 1 0 23.2 0 a11.6 11.6 0 1 0 -23.2 0zM988.4 329 a11.6 11.6 0 1 0 23.2 0 a11.6 11.6 0 1 0 -23.2 0zM988.4 242 a11.6 11.6 0 1 0 23.2 0 a11.6 11.6 0 1 0 -23.2 0zM988.4 358 a11.6 11.6 0 1 0 23.2 0 a11.6 11.6 0 1 0 -23.2 0z" fill="url(#SvgjsLinearGradient1129)"></path><path d="M1017.4 300 a11.6 11.6 0 1 0 23.2 0 a11.6 11.6 0 1 0 -23.2 0zM1017.4 271 a11.6 11.6 0 1 0 23.2 0 a11.6 11.6 0 1 0 -23.2 0zM1017.4 329 a11.6 11.6 0 1 0 23.2 0 a11.6 11.6 0 1 0 -23.2 0zM1017.4 242 a11.6 11.6 0 1 0 23.2 0 a11.6 11.6 0 1 0 -23.2 0zM1017.4 358 a11.6 11.6 0 1 0 23.2 0 a11.6 11.6 0 1 0 -23.2 0z" fill="url(#SvgjsLinearGradient1129)"></path><path d="M1046.4 300 a11.6 11.6 0 1 0 23.2 0 a11.6 11.6 0 1 0 -23.2 0zM1046.4 271 a11.6 11.6 0 1 0 23.2 0 a11.6 11.6 0 1 0 -23.2 0zM1046.4 329 a11.6 11.6 0 1 0 23.2 0 a11.6 11.6 0 1 0 -23.2 0zM1046.4 242 a11.6 11.6 0 1 0 23.2 0 a11.6 11.6 0 1 0 -23.2 0zM1046.4 358 a11.6 11.6 0 1 0 23.2 0 a11.6 11.6 0 1 0 -23.2 0zM1046.4 213 a11.6 11.6 0 1 0 23.2 0 a11.6 11.6 0 1 0 -23.2 0zM1046.4 387 a11.6 11.6 0 1 0 23.2 0 a11.6 11.6 0 1 0 -23.2 0z" fill="url(#SvgjsLinearGradient1129)"></path><path d="M1075.4 300 a11.6 11.6 0 1 0 23.2 0 a11.6 11.6 0 1 0 -23.2 0zM1075.4 271 a11.6 11.6 0 1 0 23.2 0 a11.6 11.6 0 1 0 -23.2 0zM1075.4 329 a11.6 11.6 0 1 0 23.2 0 a11.6 11.6 0 1 0 -23.2 0zM1075.4 242 a11.6 11.6 0 1 0 23.2 0 a11.6 11.6 0 1 0 -23.2 0zM1075.4 358 a11.6 11.6 0 1 0 23.2 0 a11.6 11.6 0 1 0 -23.2 0zM1075.4 213 a11.6 11.6 0 1 0 23.2 0 a11.6 11.6 0 1 0 -23.2 0zM1075.4 387 a11.6 11.6 0 1 0 23.2 0 a11.6 11.6 0 1 0 -23.2 0z" fill="url(#SvgjsLinearGradient1129)"></path><path d="M1104.4 300 a11.6 11.6 0 1 0 23.2 0 a11.6 11.6 0 1 0 -23.2 0zM1104.4 271 a11.6 11.6 0 1 0 23.2 0 a11.6 11.6 0 1 0 -23.2 0zM1104.4 329 a11.6 11.6 0 1 0 23.2 0 a11.6 11.6 0 1 0 -23.2 0zM1104.4 242 a11.6 11.6 0 1 0 23.2 0 a11.6 11.6 0 1 0 -23.2 0zM1104.4 358 a11.6 11.6 0 1 0 23.2 0 a11.6 11.6 0 1 0 -23.2 0zM1104.4 213 a11.6 11.6 0 1 0 23.2 0 a11.6 11.6 0 1 0 -23.2 0zM1104.4 387 a11.6 11.6 0 1 0 23.2 0 a11.6 11.6 0 1 0 -23.2 0z" fill="url(#SvgjsLinearGradient1129)"></path><path d="M1133.4 300 a11.6 11.6 0 1 0 23.2 0 a11.6 11.6 0 1 0 -23.2 0zM1133.4 271 a11.6 11.6 0 1 0 23.2 0 a11.6 11.6 0 1 0 -23.2 0zM1133.4 329 a11.6 11.6 0 1 0 23.2 0 a11.6 11.6 0 1 0 -23.2 0z" fill="url(#SvgjsLinearGradient1129)"></path><path d="M1162.4 300 a11.6 11.6 0 1 0 23.2 0 a11.6 11.6 0 1 0 -23.2 0zM1162.4 271 a11.6 11.6 0 1 0 23.2 0 a11.6 11.6 0 1 0 -23.2 0zM1162.4 329 a11.6 11.6 0 1 0 23.2 0 a11.6 11.6 0 1 0 -23.2 0zM1162.4 242 a11.6 11.6 0 1 0 23.2 0 a11.6 11.6 0 1 0 -23.2 0zM1162.4 358 a11.6 11.6 0 1 0 23.2 0 a11.6 11.6 0 1 0 -23.2 0zM1162.4 213 a11.6 11.6 0 1 0 23.2 0 a11.6 11.6 0 1 0 -23.2 0zM1162.4 387 a11.6 11.6 0 1 0 23.2 0 a11.6 11.6 0 1 0 -23.2 0z" fill="url(#SvgjsLinearGradient1129)"></path><path d="M1191.4 300 a11.6 11.6 0 1 0 23.2 0 a11.6 11.6 0 1 0 -23.2 0zM1191.4 271 a11.6 11.6 0 1 0 23.2 0 a11.6 11.6 0 1 0 -23.2 0zM1191.4 329 a11.6 11.6 0 1 0 23.2 0 a11.6 11.6 0 1 0 -23.2 0zM1191.4 242 a11.6 11.6 0 1 0 23.2 0 a11.6 11.6 0 1 0 -23.2 0zM1191.4 358 a11.6 11.6 0 1 0 23.2 0 a11.6 11.6 0 1 0 -23.2 0z" fill="url(#SvgjsLinearGradient1129)"></path><path d="M1220.4 300 a11.6 11.6 0 1 0 23.2 0 a11.6 11.6 0 1 0 -23.2 0zM1220.4 271 a11.6 11.6 0 1 0 23.2 0 a11.6 11.6 0 1 0 -23.2 0zM1220.4 329 a11.6 11.6 0 1 0 23.2 0 a11.6 11.6 0 1 0 -23.2 0zM1220.4 242 a11.6 11.6 0 1 0 23.2 0 a11.6 11.6 0 1 0 -23.2 0zM1220.4 358 a11.6 11.6 0 1 0 23.2 0 a11.6 11.6 0 1 0 -23.2 0zM1220.4 213 a11.6 11.6 0 1 0 23.2 0 a11.6 11.6 0 1 0 -23.2 0zM1220.4 387 a11.6 11.6 0 1 0 23.2 0 a11.6 11.6 0 1 0 -23.2 0z" fill="url(#SvgjsLinearGradient1129)"></path><path d="M1249.4 300 a11.6 11.6 0 1 0 23.2 0 a11.6 11.6 0 1 0 -23.2 0zM1249.4 271 a11.6 11.6 0 1 0 23.2 0 a11.6 11.6 0 1 0 -23.2 0zM1249.4 329 a11.6 11.6 0 1 0 23.2 0 a11.6 11.6 0 1 0 -23.2 0zM1249.4 242 a11.6 11.6 0 1 0 23.2 0 a11.6 11.6 0 1 0 -23.2 0zM1249.4 358 a11.6 11.6 0 1 0 23.2 0 a11.6 11.6 0 1 0 -23.2 0z" fill="url(#SvgjsLinearGradient1129)"></path><path d="M1278.4 300 a11.6 11.6 0 1 0 23.2 0 a11.6 11.6 0 1 0 -23.2 0zM1278.4 271 a11.6 11.6 0 1 0 23.2 0 a11.6 11.6 0 1 0 -23.2 0zM1278.4 329 a11.6 11.6 0 1 0 23.2 0 a11.6 11.6 0 1 0 -23.2 0zM1278.4 242 a11.6 11.6 0 1 0 23.2 0 a11.6 11.6 0 1 0 -23.2 0zM1278.4 358 a11.6 11.6 0 1 0 23.2 0 a11.6 11.6 0 1 0 -23.2 0z" fill="url(#SvgjsLinearGradient1129)"></path><path d="M1307.4 300 a11.6 11.6 0 1 0 23.2 0 a11.6 11.6 0 1 0 -23.2 0zM1307.4 271 a11.6 11.6 0 1 0 23.2 0 a11.6 11.6 0 1 0 -23.2 0zM1307.4 329 a11.6 11.6 0 1 0 23.2 0 a11.6 11.6 0 1 0 -23.2 0zM1307.4 242 a11.6 11.6 0 1 0 23.2 0 a11.6 11.6 0 1 0 -23.2 0zM1307.4 358 a11.6 11.6 0 1 0 23.2 0 a11.6 11.6 0 1 0 -23.2 0zM1307.4 213 a11.6 11.6 0 1 0 23.2 0 a11.6 11.6 0 1 0 -23.2 0zM1307.4 387 a11.6 11.6 0 1 0 23.2 0 a11.6 11.6 0 1 0 -23.2 0zM1307.4 184 a11.6 11.6 0 1 0 23.2 0 a11.6 11.6 0 1 0 -23.2 0zM1307.4 416 a11.6 11.6 0 1 0 23.2 0 a11.6 11.6 0 1 0 -23.2 0z" fill="url(#SvgjsLinearGradient1129)"></path><path d="M1336.4 300 a11.6 11.6 0 1 0 23.2 0 a11.6 11.6 0 1 0 -23.2 0zM1336.4 271 a11.6 11.6 0 1 0 23.2 0 a11.6 11.6 0 1 0 -23.2 0zM1336.4 329 a11.6 11.6 0 1 0 23.2 0 a11.6 11.6 0 1 0 -23.2 0zM1336.4 242 a11.6 11.6 0 1 0 23.2 0 a11.6 11.6 0 1 0 -23.2 0zM1336.4 358 a11.6 11.6 0 1 0 23.2 0 a11.6 11.6 0 1 0 -23.2 0z" fill="url(#SvgjsLinearGradient1129)"></path><path d="M1365.4 300 a11.6 11.6 0 1 0 23.2 0 a11.6 11.6 0 1 0 -23.2 0zM1365.4 271 a11.6 11.6 0 1 0 23.2 0 a11.6 11.6 0 1 0 -23.2 0zM1365.4 329 a11.6 11.6 0 1 0 23.2 0 a11.6 11.6 0 1 0 -23.2 0zM1365.4 242 a11.6 11.6 0 1 0 23.2 0 a11.6 11.6 0 1 0 -23.2 0zM1365.4 358 a11.6 11.6 0 1 0 23.2 0 a11.6 11.6 0 1 0 -23.2 0zM1365.4 213 a11.6 11.6 0 1 0 23.2 0 a11.6 11.6 0 1 0 -23.2 0zM1365.4 387 a11.6 11.6 0 1 0 23.2 0 a11.6 11.6 0 1 0 -23.2 0z" fill="url(#SvgjsLinearGradient1129)"></path></g></g><defs><mask id="SvgjsMask1128"><rect width="2000" height="600" fill="#ffffff"></rect></mask><linearGradient x1="600" y1="300" x2="1400" y2="300" gradientUnits="userSpaceOnUse" id="SvgjsLinearGradient1129"><stop stop-color="rgba(25, 77, 133, 1)" offset="0"></stop><stop stop-color="rgba(13, 165, 140, 1)" offset="1"></stop></linearGradient><path d="M-11.6 0 a11.6 11.6 0 1 0 23.2 0 a11.6 11.6 0 1 0 -23.2 0zM-11.6 29 a11.6 11.6 0 1 0 23.2 0 a11.6 11.6 0 1 0 -23.2 0zM-11.6 -29 a11.6 11.6 0 1 0 23.2 0 a11.6 11.6 0 1 0 -23.2 0z"></path><path d="M-11.6 0 a11.6 11.6 0 1 0 23.2 0 a11.6 11.6 0 1 0 -23.2 0zM-11.6 29 a11.6 11.6 0 1 0 23.2 0 a11.6 11.6 0 1 0 -23.2 0zM-11.6 -29 a11.6 11.6 0 1 0 23.2 0 a11.6 11.6 0 1 0 -23.2 0zM-11.6 58 a11.6 11.6 0 1 0 23.2 0 a11.6 11.6 0 1 0 -23.2 0zM-11.6 -58 a11.6 11.6 0 1 0 23.2 0 a11.6 11.6 0 1 0 -23.2 0z"></path><path d="M-11.6 0 a11.6 11.6 0 1 0 23.2 0 a11.6 11.6 0 1 0 -23.2 0zM-11.6 29 a11.6 11.6 0 1 0 23.2 0 a11.6 11.6 0 1 0 -23.2 0zM-11.6 -29 a11.6 11.6 0 1 0 23.2 0 a11.6 11.6 0 1 0 -23.2 0zM-11.6 58 a11.6 11.6 0 1 0 23.2 0 a11.6 11.6 0 1 0 -23.2 0zM-11.6 -58 a11.6 11.6 0 1 0 23.2 0 a11.6 11.6 0 1 0 -23.2 0zM-11.6 87 a11.6 11.6 0 1 0 23.2 0 a11.6 11.6 0 1 0 -23.2 0zM-11.6 -87 a11.6 11.6 0 1 0 23.2 0 a11.6 11.6 0 1 0 -23.2 0z"></path><path d="M-11.6 0 a11.6 11.6 0 1 0 23.2 0 a11.6 11.6 0 1 0 -23.2 0zM-11.6 29 a11.6 11.6 0 1 0 23.2 0 a11.6 11.6 0 1 0 -23.2 0zM-11.6 -29 a11.6 11.6 0 1 0 23.2 0 a11.6 11.6 0 1 0 -23.2 0zM-11.6 58 a11.6 11.6 0 1 0 23.2 0 a11.6 11.6 0 1 0 -23.2 0zM-11.6 -58 a11.6 11.6 0 1 0 23.2 0 a11.6 11.6 0 1 0 -23.2 0zM-11.6 87 a11.6 11.6 0 1 0 23.2 0 a11.6 11.6 0 1 0 -23.2 0zM-11.6 -87 a11.6 11.6 0 1 0 23.2 0 a11.6 11.6 0 1 0 -23.2 0zM-11.6 116 a11.6 11.6 0 1 0 23.2 0 a11.6 11.6 0 1 0 -23.2 0zM-11.6 -116 a11.6 11.6 0 1 0 23.2 0 a11.6 11.6 0 1 0 -23.2 0z"></path></defs></svg>