<svg xmlns="http://www.w3.org/2000/svg" version="1.1" xmlns:xlink="http://www.w3.org/1999/xlink" xmlns:svgjs="http://svgjs.com/svgjs" width="2000" height="800" preserveAspectRatio="none" viewBox="0 0 2000 800"><g mask="url(&quot;#SvgjsMask1075&quot;)" fill="none"><rect width="2000" height="800" x="0" y="0" fill="rgba(49, 184, 167, 1)"></rect><path d="M 0,252 C 57.2,217.8 171.6,83.4 286,81 C 400.4,78.6 457.6,251.8 572,240 C 686.4,228.2 743.6,34.6 858,22 C 972.4,9.4 1029.6,160.4 1144,177 C 1258.4,193.6 1315.6,89.4 1430,105 C 1544.4,120.6 1602,274 1716,255 C 1830,236 1943.2,59 2000,10L2000 800L0 800z" fill="rgba(31, 127, 146, 1)"></path><path d="M 0,270 C 66.8,304.8 200.4,423.6 334,444 C 467.6,464.4 534.4,364.8 668,372 C 801.6,379.2 868.4,487.4 1002,480 C 1135.6,472.6 1202.4,339.6 1336,335 C 1469.6,330.4 1537.2,455.6 1670,457 C 1802.8,458.4 1934,365 2000,342L2000 800L0 800z" fill="rgba(24, 98, 126, 1)"></path><path d="M 0,759 C 100,730.2 300,632.2 500,615 C 700,597.8 800,679.6 1000,673 C 1200,666.4 1300,578.2 1500,582 C 1700,585.8 1900,670 2000,692L2000 800L0 800z" fill="rgba(14, 44, 71, 1)"></path></g><defs><mask id="SvgjsMask1075"><rect width="2000" height="800" fill="#ffffff"></rect></mask></defs></svg>