<svg xmlns="http://www.w3.org/2000/svg" version="1.1" xmlns:xlink="http://www.w3.org/1999/xlink" xmlns:svgjs="http://svgjs.com/svgjs" width="2000" height="1000" preserveAspectRatio="none" viewBox="0 0 2000 1000"><g mask="url(&quot;#SvgjsMask1014&quot;)" fill="none"><rect width="2000" height="1000" x="0" y="0" fill="url(#SvgjsLinearGradient1015)"></rect><path d="M -648.904651952786,433 C -568.9,511.6 -408.9,841 -248.904651952786,826 C -88.9,811 -8.9,401.6 151.095348047214,358 C 311.1,314.4 391.1,605.6 551.095348047214,608 C 711.1,610.4 791.1,344.6 951.095348047214,370 C 1111.1,395.4 1191.1,709.4 1351.095348047214,735 C 1511.1,760.6 1621.31,491.6 1751.095348047214,498 C 1880.88,504.4 1950.22,713.2 2000,767" stroke="rgba(117, 189, 183, 0.58)" stroke-width="2"></path><path d="M -402.6488225917523,792 C -322.65,684.4 -162.65,301.6 -2.6488225917523422,254 C 157.35,206.4 237.35,526.6 397.3511774082477,554 C 557.35,581.4 637.35,391.2 797.3511774082476,391 C 957.35,390.8 1037.35,554.4 1197.3511774082476,553 C 1357.35,551.6 1437.35,374.4 1597.3511774082476,384 C 1757.35,393.6 1916.82,602.8 1997.3511774082476,601 C 2077.88,599.2 1999.47,420.2 2000,375" stroke="rgba(117, 189, 183, 0.58)" stroke-width="2"></path><path d="M -647.6251506672581,799 C -567.63,702.4 -407.63,370.2 -247.62515066725817,316 C -87.63,261.8 -7.63,534.8 152.37484933274183,528 C 312.37,521.2 392.37,273.4 552.3748493327419,282 C 712.37,290.6 792.37,532.2 952.3748493327419,571 C 1112.37,609.8 1192.37,432.6 1352.3748493327419,476 C 1512.37,519.4 1622.85,783.4 1752.3748493327419,788 C 1881.9,792.6 1950.47,556.8 2000,499" stroke="rgba(117, 189, 183, 0.58)" stroke-width="2"></path><path d="M -193.3801182882064,817 C -113.38,721.6 46.62,367.6 206.6198817117936,340 C 366.62,312.4 446.62,648.2 606.6198817117936,679 C 766.62,709.8 846.62,497.4 1006.6198817117936,494 C 1166.62,490.6 1246.62,669.6 1406.6198817117936,662 C 1566.62,654.4 1646.62,462.8 1806.6198817117936,456 C 1966.62,449.2 2167.94,619.6 2206.619881711794,628 C 2245.3,636.4 2041.32,524 2000,498" stroke="rgba(117, 189, 183, 0.58)" stroke-width="2"></path><path d="M -413.6266815211924,266 C -333.63,353.8 -173.63,688 -13.626681521192374,705 C 146.37,722 226.37,335.6 386.3733184788076,351 C 546.37,366.4 626.37,803.6 786.3733184788076,782 C 946.37,760.4 1026.37,261.8 1186.3733184788077,243 C 1346.37,224.2 1426.37,655.8 1586.3733184788077,688 C 1746.37,720.2 1903.65,436 1986.3733184788077,404 C 2069.1,372 1997.27,503.2 2000,528" stroke="rgba(117, 189, 183, 0.58)" stroke-width="2"></path></g><defs><mask id="SvgjsMask1014"><rect width="2000" height="1000" fill="#ffffff"></rect></mask><linearGradient x1="50%" y1="100%" x2="50%" y2="0%" gradientUnits="userSpaceOnUse" id="SvgjsLinearGradient1015"><stop stop-color="rgba(9, 6, 31, 1)" offset="0"></stop><stop stop-color="rgba(1, 75, 105, 1)" offset="1"></stop></linearGradient></defs></svg>