<svg xmlns="http://www.w3.org/2000/svg" version="1.1" xmlns:xlink="http://www.w3.org/1999/xlink" xmlns:svgjs="http://svgjs.com/svgjs" width="1440" height="560" preserveAspectRatio="none" viewBox="0 0 1440 560"><g mask="url(&quot;#SvgjsMask1000&quot;)" fill="none"><rect width="1440" height="560" x="0" y="0" fill="#0e2a47"></rect><path d="M 0,76 C 57.6,116.2 172.8,268.6 288,277 C 403.2,285.4 460.8,130.4 576,118 C 691.2,105.6 748.8,219.4 864,215 C 979.2,210.6 1036.8,97.2 1152,96 C 1267.2,94.8 1382.4,186.4 1440,209L1440 560L0 560z" fill="#184a7e"></path><path d="M 0,545 C 96,495.2 288,316.8 480,296 C 672,275.2 768,431.2 960,441 C 1152,450.8 1344,364.2 1440,345L1440 560L0 560z" fill="#2264ab"></path></g><defs><mask id="SvgjsMask1000"><rect width="1440" height="560" fill="#ffffff"></rect></mask></defs></svg>