<svg xmlns="http://www.w3.org/2000/svg" version="1.1" xmlns:xlink="http://www.w3.org/1999/xlink" xmlns:svgjs="http://svgjs.com/svgjs" width="1440" height="560" preserveAspectRatio="none" viewBox="0 0 1440 560"><g mask="url(&quot;#SvgjsMask1005&quot;)" fill="none"><rect width="1440" height="560" x="0" y="0" fill="rgba(34, 124, 171, 1)"></rect><path d="M 0,189 C 57.6,159.4 172.8,27.2 288,41 C 403.2,54.8 460.8,244.8 576,258 C 691.2,271.2 748.8,120.2 864,107 C 979.2,93.8 1036.8,195.8 1152,192 C 1267.2,188.2 1382.4,108.8 1440,88L1440 560L0 560z" fill="rgba(24, 91, 126, 1)"></path><path d="M 0,425 C 96,413.6 288,367.2 480,368 C 672,368.8 768,446.2 960,429 C 1152,411.8 1344,311.4 1440,282L1440 560L0 560z" fill="rgba(14, 54, 71, 1)"></path></g><defs><mask id="SvgjsMask1005"><rect width="1440" height="560" fill="#ffffff"></rect></mask></defs></svg>